<svg width="32" height="34" viewBox="0 0 32 34" fill="none" xmlns="http://www.w3.org/2000/svg">
<path d="M0.0885627 0C0.0442814 0.13175 0 0.262083 0 0.436333V33.3441C0 33.6515 0.0900387 33.8257 0.271592 34L17.1206 16.8682L0.0885627 0ZM18.2572 18.003L22.613 22.3167L16.3944 25.7167C16.3944 25.7167 8.4902 30.0291 4.13145 32.4303L18.2572 18.003ZM19.4395 16.8257L24.1126 21.4894C24.8448 21.0984 30.5644 17.9591 31.3807 17.5228C32.2427 17.0439 32.1556 16.3894 31.4235 16.0409C30.746 15.6797 25.0263 12.5347 24.1614 12.0247L19.4336 16.83L19.4395 16.8257V16.8257ZM18.2542 15.6924L22.6587 11.203L16.3723 7.75908C16.3723 7.75908 6.1241 2.13208 2.71444 0.253583L18.2572 15.6924H18.2542Z" fill="white"/>
</svg>
