<svg width="283" height="198" viewBox="0 0 283 198" fill="none" xmlns="http://www.w3.org/2000/svg">
<g id="undraw_web_developer_p3e5 1" clip-path="url(#clip0)">
<path id="Vector" d="M227.267 184.156C225.43 191.129 218.993 195.487 218.993 195.487C218.993 195.487 215.534 188.539 217.371 181.566C219.208 174.593 225.645 170.235 225.645 170.235C225.645 170.235 229.103 177.183 227.267 184.156Z" fill="#3F3D56"/>
<path id="Vector_2" d="M224.48 182.681C219.336 187.748 218.76 195.483 218.76 195.483C218.76 195.483 226.526 195.003 231.671 189.936C236.816 184.869 237.391 177.134 237.391 177.134C237.391 177.134 229.625 177.614 224.48 182.681Z" fill="#3D3FE0"/>
<path id="Vector_3" d="M38.0644 157.778H47.7535L71.6303 148.464C71.6303 148.464 88.5863 141.565 87.2021 154.673C85.8179 167.781 83.3956 185.374 83.3956 185.374C83.3956 185.374 75.7828 181.925 71.6303 182.959C67.4778 183.994 70.2461 161.917 70.2461 161.917C70.2461 161.917 36.3342 178.13 33.2198 176.06C30.1055 173.991 29.4134 159.502 29.4134 159.502L38.0644 157.778Z" fill="#2F2E41"/>
<path id="Vector_4" opacity="0.1" d="M38.0644 157.778H47.7535L71.6303 148.464C71.6303 148.464 88.5863 141.565 87.2021 154.673C85.8179 167.781 83.3956 185.374 83.3956 185.374C83.3956 185.374 75.7828 181.925 71.6303 182.959C67.4778 183.994 70.2461 161.917 70.2461 161.917C70.2461 161.917 36.3342 178.13 33.2198 176.06C30.1055 173.991 29.4134 159.502 29.4134 159.502L38.0644 157.778Z" fill="black"/>
<path id="Vector_5" d="M53.3297 127.53L65.0556 144.324L92.3927 167.091C92.3927 167.091 117.654 172.956 114.193 177.095C110.733 181.235 89.6244 172.956 89.6244 172.956C89.6244 172.956 58.1348 150.189 57.0966 148.464C56.0585 146.739 44.6392 130.526 44.6392 130.526L53.3297 127.53Z" fill="#A0616A"/>
<path id="Vector_6" opacity="0.1" d="M53.3297 127.53L65.0556 144.324L92.3927 167.091C92.3927 167.091 117.654 172.956 114.193 177.095C110.733 181.235 89.6244 172.956 89.6244 172.956C89.6244 172.956 58.1348 150.189 57.0966 148.464C56.0585 146.739 44.6392 130.526 44.6392 130.526L53.3297 127.53Z" fill="black"/>
<path id="Vector_7" d="M46.3694 113.968L53.9822 128.801C53.9822 128.801 52.2521 136.045 49.4837 136.735C46.7154 137.425 34.95 127.766 34.95 127.766L46.3694 113.968Z" fill="#D0CDE1"/>
<path id="Vector_8" opacity="0.1" d="M46.3694 113.968L53.9822 128.801C53.9822 128.801 52.2521 136.045 49.4837 136.735C46.7154 137.425 34.95 127.766 34.95 127.766L46.3694 113.968Z" fill="black"/>
<path id="Vector_9" d="M139.243 150.098L141.492 159.345C141.517 159.448 141.513 159.556 141.481 159.657L131.28 191.435C131.239 191.561 131.157 191.669 131.046 191.742C130.935 191.814 130.803 191.847 130.671 191.834C130.539 191.821 130.416 191.763 130.321 191.671C130.227 191.578 130.167 191.456 130.152 191.324L128.741 178.945C128.732 178.863 128.74 178.779 128.766 178.701L138.129 150.055C138.168 149.935 138.245 149.832 138.349 149.76C138.452 149.688 138.577 149.652 138.703 149.656C138.829 149.661 138.95 149.707 139.047 149.787C139.145 149.866 139.214 149.975 139.243 150.098Z" fill="#2F2E41"/>
<path id="Vector_10" d="M138.416 150.878L140.492 158.813L131.495 187.789L129.419 178.82L138.416 150.878Z" fill="#F2F2F2"/>
<path id="Vector_11" d="M93.0848 193.998C93.4308 195.033 129.073 193.653 129.419 193.308C129.721 192.876 129.976 192.414 130.18 191.928C130.506 191.238 130.803 190.549 130.803 190.549L129.419 179.379L94.1229 178.13C94.1229 178.13 93.2405 187.596 93.0605 191.928C93.0156 193.022 93.0156 193.791 93.0848 193.998Z" fill="#2F2E41"/>
<path id="Vector_12" opacity="0.1" d="M124.921 180.89L125.612 190.549H110.041V180.89H124.921Z" fill="black"/>
<path id="Vector_13" opacity="0.1" d="M104.85 183.994L104.943 183.976L104.504 188.134H95.8532V183.994H104.85Z" fill="black"/>
<path id="Vector_14" opacity="0.1" d="M93.0848 193.998C93.4308 195.033 129.073 193.653 129.419 193.308C129.721 192.876 129.976 192.414 130.18 191.928H93.0606C93.0156 193.022 93.0156 193.791 93.0848 193.998Z" fill="black"/>
<path id="Vector_15" d="M51.56 109.139C60.1601 109.139 67.1318 102.189 67.1318 93.6156C67.1318 85.0424 60.1601 78.0925 51.56 78.0925C42.9599 78.0925 35.9882 85.0424 35.9882 93.6156C35.9882 102.189 42.9599 109.139 51.56 109.139Z" fill="#A0616A"/>
<path id="Vector_16" d="M50.5219 107.414C50.5219 107.414 45.3313 116.383 44.2931 121.212C43.255 126.042 28.7213 111.553 28.7213 111.553L26.8181 106.551C26.8181 106.551 40.4867 100.17 39.4486 94.9954C38.4105 89.821 50.5219 107.414 50.5219 107.414Z" fill="#A0616A"/>
<path id="Vector_17" d="M53.2902 134.321L67.4778 152.948L101.39 178.13C101.39 178.13 125.959 183.304 120.422 187.099C114.885 190.894 98.9675 183.649 98.9675 183.649C98.9675 183.649 64.7095 165.367 57.4427 157.778C50.1758 150.189 36.6802 137.425 36.6802 137.425L53.2902 134.321Z" fill="#A0616A"/>
<path id="Vector_18" d="M34.258 163.297L38.4105 169.851L63.1929 162.079C68.6305 160.373 74.5932 161.001 79.4162 164.03C83.7417 166.746 86.51 171.058 80.2813 177.44C67.8239 190.204 59.5189 183.304 59.5189 183.304C59.5189 183.304 17.6481 202.967 10.7273 193.308C3.80645 183.649 3.46042 178.82 3.46042 178.82C3.46042 178.82 30.1055 162.262 34.258 163.297Z" fill="#2F2E41"/>
<path id="Vector_19" d="M86.164 186.064C86.164 186.064 97.2373 193.308 84.0877 196.758C70.9382 200.207 61.2491 195.378 61.2491 195.378C61.2491 195.378 49.8298 195.378 49.8298 189.514C49.8298 183.649 53.6362 182.959 53.6362 182.959L65.4016 184.684C65.4016 184.684 79.5892 180.89 86.164 186.064Z" fill="#D0CDE1"/>
<path id="Vector_20" d="M64.3343 89.7107C65.3942 90.1817 66.4451 90.7391 67.5974 90.8759C68.7497 91.0126 70.0618 90.6115 70.6071 89.5904C70.9016 89.0389 70.9352 88.3901 70.949 87.7655C70.9906 85.8712 70.8532 83.8235 69.6491 82.3575C68.8827 81.4246 67.7641 80.8365 66.9708 79.9261C66.4025 79.274 66.0242 78.4835 65.6169 77.7209C64.0742 74.8325 61.79 72.0565 58.6155 71.2238C57.2899 70.8761 55.8993 70.8931 54.5287 70.9123L46.5343 71.0248C45.2406 71.043 43.927 71.0641 42.6885 71.4374C40.1154 72.213 38.2419 74.37 36.526 76.4329C35.2422 77.9762 33.9551 79.5355 32.9917 81.2954C31.6104 83.8635 30.9119 86.7416 30.9629 89.6552C30.9522 90.4024 31.0489 91.1474 31.2503 91.8672C31.4858 92.5275 31.7776 93.1664 32.1224 93.777C33.6216 96.7124 34.5118 100.379 32.8234 103.211C35.7563 102.016 38.6582 100.45 40.5929 97.9494C41.4584 96.8306 42.1372 95.5209 43.2906 94.6998C44.4441 93.8788 46.3235 93.8076 47.0635 95.0126C47.3179 95.5 47.4489 96.042 47.4451 96.5915C47.4991 97.4959 47.4977 98.4352 47.8823 99.2561C48.267 100.077 49.1833 100.739 50.0582 100.494C51.5648 100.071 51.4205 97.7656 52.581 96.7185C53.4623 95.9233 54.8219 96.0753 55.9541 95.7143C57.2732 95.2937 58.263 94.1545 58.827 92.8935C59.2557 91.935 59.2495 89.4268 60.0607 88.9077C61.0779 88.2568 63.3913 89.2916 64.3343 89.7107Z" fill="#2F2E41"/>
<path id="Vector_21" d="M25.582 104.915C26.2825 104.729 27.02 104.731 27.7196 104.921C29.9409 105.515 34.9205 107.089 35.9882 109.484C37.3723 112.588 42.2169 117.418 42.2169 117.418C42.2169 117.418 48.7917 123.972 47.4075 128.456C46.0233 132.941 40.8327 138.115 40.8327 138.115C40.8327 138.115 42.2169 159.502 35.2961 165.022C28.3753 170.541 25.607 166.746 25.607 171.921C25.607 177.095 4.15248 193.308 0 183.304C0 183.304 2.07624 164.677 1.38416 158.123C0.702062 151.663 1.70062 111.36 25.582 104.915Z" fill="#D0CDE1"/>
<path id="Vector_22" d="M36.6803 113.623C36.6803 113.623 57.7887 129.146 53.9823 135.7C53.9823 135.7 41.1788 141.91 38.4105 141.565C35.6421 141.22 24.9149 129.146 22.1466 128.111C19.3782 127.076 17.9941 108.449 36.6803 113.623Z" fill="#D0CDE1"/>
<path id="Vector_23" d="M130.989 79.2961C140.43 79.2961 148.083 71.6665 148.083 62.2549C148.083 52.8433 140.43 45.2137 130.989 45.2137C121.547 45.2137 113.894 52.8433 113.894 62.2549C113.894 71.6665 121.547 79.2961 130.989 79.2961Z" fill="#F2F2F2"/>
<path id="Vector_24" d="M272.182 40.1231H176.386V20.1404H272.182V40.1231ZM176.808 39.7024H271.76V20.5611H176.808V39.7024Z" fill="#3F3D56"/>
<path id="Vector_25" d="M265.219 24.1369H169.845V43.6989H265.219V24.1369Z" fill="#3D3FE0"/>
<path id="Vector_26" d="M109.555 5.46893C110.37 5.46893 111.032 4.8097 111.032 3.9965C111.032 3.18331 110.37 2.52408 109.555 2.52408C108.739 2.52408 108.078 3.18331 108.078 3.9965C108.078 4.8097 108.739 5.46893 109.555 5.46893Z" fill="#3D3FE0"/>
<path id="Vector_27" d="M114.619 5.46893C115.435 5.46893 116.096 4.8097 116.096 3.9965C116.096 3.18331 115.435 2.52408 114.619 2.52408C113.803 2.52408 113.142 3.18331 113.142 3.9965C113.142 4.8097 113.803 5.46893 114.619 5.46893Z" fill="#3D3FE0"/>
<path id="Vector_28" d="M119.683 5.46893C120.499 5.46893 121.16 4.8097 121.16 3.9965C121.16 3.18331 120.499 2.52408 119.683 2.52408C118.867 2.52408 118.206 3.18331 118.206 3.9965C118.206 4.8097 118.867 5.46893 119.683 5.46893Z" fill="#3D3FE0"/>
<path id="Vector_29" d="M283 115.268H105.335V0H283V115.268ZM105.757 114.848H282.578V0.420688H105.757V114.848Z" fill="#3F3D56"/>
<path id="Vector_30" d="M282.789 6.38077H105.546V6.80145H282.789V6.38077Z" fill="#3F3D56"/>
<path id="Vector_31" d="M109.977 5.04824C109.643 5.04824 109.317 4.94955 109.039 4.76465C108.761 4.57974 108.545 4.31693 108.417 4.00945C108.289 3.70197 108.256 3.36362 108.321 3.0372C108.386 2.71078 108.547 2.41094 108.783 2.17561C109.019 1.94027 109.32 1.78 109.647 1.71507C109.975 1.65014 110.314 1.68347 110.623 1.81083C110.931 1.9382 111.195 2.15388 111.38 2.43061C111.566 2.70733 111.665 3.03267 111.665 3.36549C111.664 3.81162 111.486 4.23934 111.17 4.5548C110.853 4.87027 110.424 5.04772 109.977 5.04824ZM109.977 2.10343C109.726 2.10343 109.482 2.17745 109.273 2.31612C109.065 2.4548 108.903 2.65191 108.807 2.88252C108.711 3.11313 108.686 3.36689 108.735 3.61171C108.784 3.85652 108.904 4.0814 109.082 4.2579C109.259 4.43441 109.484 4.55461 109.73 4.6033C109.975 4.652 110.23 4.627 110.461 4.53148C110.693 4.43596 110.89 4.2742 111.029 4.06665C111.169 3.85911 111.243 3.6151 111.243 3.36549C111.242 3.03089 111.109 2.7101 110.872 2.47351C110.634 2.23691 110.312 2.10382 109.977 2.10343Z" fill="#3F3D56"/>
<path id="Vector_32" d="M115.041 5.04824C114.707 5.04824 114.381 4.94955 114.103 4.76465C113.825 4.57974 113.609 4.31693 113.481 4.00945C113.354 3.70197 113.32 3.36362 113.385 3.0372C113.45 2.71078 113.611 2.41094 113.847 2.17561C114.083 1.94027 114.384 1.78 114.712 1.71507C115.039 1.65014 115.378 1.68347 115.687 1.81083C115.995 1.9382 116.259 2.15388 116.444 2.43061C116.63 2.70733 116.729 3.03267 116.729 3.36549C116.728 3.81162 116.55 4.23934 116.234 4.5548C115.917 4.87027 115.488 5.04772 115.041 5.04824ZM115.041 2.10343C114.79 2.10343 114.546 2.17745 114.338 2.31612C114.129 2.4548 113.967 2.65191 113.871 2.88252C113.775 3.11313 113.75 3.36689 113.799 3.61171C113.848 3.85652 113.969 4.0814 114.146 4.2579C114.323 4.43441 114.548 4.55461 114.794 4.6033C115.039 4.652 115.294 4.627 115.525 4.53148C115.757 4.43596 115.954 4.2742 116.094 4.06665C116.233 3.85911 116.307 3.6151 116.307 3.36549C116.307 3.03089 116.173 2.7101 115.936 2.47351C115.698 2.23691 115.377 2.10382 115.041 2.10343Z" fill="#3F3D56"/>
<path id="Vector_33" d="M120.105 5.04824C119.771 5.04824 119.445 4.94955 119.167 4.76464C118.89 4.57974 118.673 4.31693 118.545 4.00945C118.418 3.70197 118.384 3.36362 118.449 3.0372C118.514 2.71078 118.675 2.41094 118.911 2.17561C119.147 1.94027 119.448 1.78 119.776 1.71507C120.103 1.65014 120.443 1.68347 120.751 1.81083C121.059 1.93819 121.323 2.15387 121.509 2.4306C121.694 2.70733 121.793 3.03267 121.793 3.36549C121.792 3.81162 121.614 4.23933 121.298 4.5548C120.982 4.87026 120.553 5.04772 120.105 5.04824ZM120.105 2.10343C119.855 2.10343 119.61 2.17744 119.402 2.31612C119.193 2.4548 119.031 2.65191 118.935 2.88252C118.839 3.11313 118.814 3.36689 118.863 3.6117C118.912 3.85652 119.033 4.0814 119.21 4.2579C119.387 4.4344 119.612 4.5546 119.858 4.6033C120.104 4.652 120.358 4.62701 120.589 4.53148C120.821 4.43596 121.019 4.2742 121.158 4.06665C121.297 3.85911 121.371 3.6151 121.371 3.36549C121.371 3.03089 121.237 2.71011 121 2.47351C120.762 2.23691 120.441 2.10382 120.105 2.10343Z" fill="#3F3D56"/>
<path id="Vector_34" d="M161.404 6.59109H160.982V115.221H161.404V6.59109Z" fill="#3F3D56"/>
<path id="Vector_35" d="M212.151 60.0005H181.134V64.2074H212.151V60.0005Z" fill="#F2F2F2"/>
<path id="Vector_36" d="M260.893 60.0005H229.876V64.2074H260.893V60.0005Z" fill="#F2F2F2"/>
<path id="Vector_37" d="M214.05 62.3143H182.611V57.6867H214.05V62.3143ZM183.033 61.8936H213.628V58.1074H183.033V61.8936Z" fill="#3F3D56"/>
<path id="Vector_38" d="M212.151 92.6038H181.134V96.8106H212.151V92.6038Z" fill="#F2F2F2"/>
<path id="Vector_39" d="M214.05 94.9175H182.611V90.29H214.05V94.9175ZM183.033 94.4969H213.628V90.7107H183.033V94.4969Z" fill="#3F3D56"/>
<path id="Vector_40" d="M260.999 75.8815H181.239V80.0883H260.999V75.8815Z" fill="#F2F2F2"/>
<path id="Vector_41" d="M262.898 78.6159H182.716V73.9883H262.898V78.6159ZM183.138 78.1952H262.476V74.409H183.138V78.1952Z" fill="#3F3D56"/>
<path id="Vector_42" d="M262.792 62.3143H231.353V57.6867H262.792V62.3143ZM231.775 61.8936H262.37V58.1074H231.775V61.8936Z" fill="#3F3D56"/>
<path id="Vector_43" d="M133.882 74.8392C130.448 74.8392 127.093 73.8244 124.238 71.9231C121.384 70.0218 119.159 67.3194 117.845 64.1576C116.531 60.9958 116.188 57.5167 116.857 54.1601C117.527 50.8036 119.18 47.7204 121.608 45.3005C124.035 42.8806 127.128 41.2326 130.495 40.5649C133.862 39.8973 137.352 40.24 140.524 41.5496C143.696 42.8593 146.407 45.0771 148.314 47.9226C150.221 50.7681 151.239 54.1136 151.239 57.5359C151.234 62.1234 149.404 66.5216 146.15 69.7655C142.895 73.0094 138.483 74.8341 133.882 74.8392ZM133.882 40.7568C130.553 40.7568 127.298 41.7409 124.53 43.5846C121.762 45.4283 119.605 48.0488 118.331 51.1148C117.057 54.1808 116.724 57.5545 117.373 60.8093C118.023 64.0641 119.626 67.0538 121.98 69.4004C124.334 71.747 127.333 73.3451 130.598 73.9925C133.863 74.6399 137.247 74.3076 140.323 73.0377C143.398 71.7677 146.027 69.6171 147.877 66.8578C149.726 64.0985 150.713 60.8544 150.713 57.5359C150.708 53.0873 148.933 48.8224 145.778 45.6768C142.622 42.5313 138.344 40.7618 133.882 40.7568Z" fill="#3F3D56"/>
<path id="Vector_44" d="M271.165 195.176H196.737V195.701H271.165V195.176Z" fill="#3F3D56"/>
</g>
<defs>
<clipPath id="clip0">
<rect width="283" height="198" fill="white"/>
</clipPath>
</defs>
</svg>
