<svg width="259" height="242" viewBox="0 0 259 242" fill="none" xmlns="http://www.w3.org/2000/svg">
<g id="undraw_develop_app_re_bi4i 1" clip-path="url(#clip0)">
<path id="Path 339" d="M197.36 57.5084H196.031V21.0824C196.031 15.491 193.811 10.1286 189.859 6.17491C185.907 2.22119 180.547 7.62939e-06 174.958 7.62939e-06H97.8196C92.2305 7.62939e-06 86.8704 2.22119 82.9184 6.17491C78.9664 10.1286 76.7462 15.491 76.7462 21.0824V220.918C76.7462 226.509 78.9664 231.871 82.9184 235.825C86.8704 239.779 92.2305 242 97.8196 242H174.959C180.548 242 185.909 239.779 189.861 235.825C193.813 231.871 196.033 226.509 196.033 220.918V83.4369H197.36V57.5084Z" fill="#3F3D56"/>
<path id="Path 340" d="M191.736 19.6717V222.329C191.736 226.569 190.052 230.634 187.056 233.632C184.06 236.63 179.997 238.315 175.759 238.317H97.0345C92.7952 238.317 88.7294 236.633 85.7313 233.634C82.7333 230.636 81.0485 226.569 81.0477 222.328V19.6717C81.049 15.431 82.734 11.3644 85.732 8.36633C88.73 5.36829 92.7956 3.68433 97.0345 3.6848H106.584C106.115 4.83843 105.937 6.08962 106.064 7.3284C106.192 8.56717 106.622 9.75561 107.316 10.7893C108.011 11.8229 108.948 12.6701 110.046 13.2564C111.144 13.8427 112.37 14.1501 113.615 14.1516H158.496C159.741 14.15 160.967 13.8424 162.065 13.2559C163.163 12.6694 164.1 11.8221 164.795 10.7883C165.489 9.75446 165.918 8.5659 166.046 7.32704C166.173 6.08818 165.995 4.83697 165.526 3.68338H175.755C179.992 3.68413 184.056 5.36827 187.052 8.36554C190.049 11.3628 191.733 15.4279 191.735 19.6671L191.736 19.6717Z" fill="#E6E6E6"/>
<path id="Vector" d="M183.348 227.738H89.4358C88.6341 227.737 87.8656 227.418 87.2987 226.851C86.7319 226.284 86.413 225.515 86.4121 224.713V27.1985C86.413 26.3965 86.7319 25.6276 87.2987 25.0605C87.8656 24.4934 88.6341 24.1744 89.4358 24.1735H183.348C184.15 24.1744 184.919 24.4934 185.485 25.0605C186.052 25.6276 186.371 26.3965 186.372 27.1985V224.713C186.371 225.515 186.052 226.284 185.485 226.851C184.919 227.418 184.15 227.737 183.348 227.738Z" fill="white"/>
<path id="Ellipse 56" d="M136.036 90.859C150.326 90.859 161.911 79.2697 161.911 64.9736C161.911 50.6775 150.326 39.0882 136.036 39.0882C121.746 39.0882 110.162 50.6775 110.162 64.9736C110.162 79.2697 121.746 90.859 136.036 90.859Z" fill="#E6E6E6"/>
<path id="Ellipse 60" d="M135.681 87.3547C148.036 87.3547 158.052 77.3343 158.052 64.9736C158.052 52.6129 148.036 42.5925 135.681 42.5925C123.325 42.5925 113.309 52.6129 113.309 64.9736C113.309 77.3343 123.325 87.3547 135.681 87.3547Z" fill="white"/>
<path id="Path 341" d="M136.179 52.2793C133.656 52.2793 131.19 53.0277 129.092 54.4298C126.995 55.832 125.36 57.8249 124.394 60.1566C123.429 62.4882 123.176 65.054 123.669 67.5292C124.161 70.0045 125.376 72.2782 127.159 74.0628C128.943 75.8474 131.216 77.0627 133.69 77.5551C136.164 78.0475 138.729 77.7948 141.06 76.8289C143.39 75.8631 145.382 74.2276 146.784 72.1291C148.186 70.0307 148.934 67.5636 148.934 65.0398C148.934 61.6555 147.59 58.4098 145.198 56.0168C142.806 53.6237 139.561 52.2793 136.179 52.2793ZM136.179 56.1075C136.935 56.1075 137.675 56.332 138.305 56.7527C138.934 57.1733 139.424 57.7712 139.714 58.4707C140.004 59.1703 140.079 59.94 139.932 60.6826C139.784 61.4252 139.42 62.1073 138.884 62.6427C138.349 63.1781 137.667 63.5427 136.925 63.6904C136.183 63.8381 135.413 63.7623 134.714 63.4726C134.015 63.1828 133.417 62.6921 132.997 62.0626C132.576 61.433 132.352 60.6929 132.352 59.9357C132.352 59.433 132.451 58.9352 132.643 58.4707C132.836 58.0063 133.117 57.5842 133.473 57.2288C133.828 56.8733 134.25 56.5913 134.714 56.3989C135.178 56.2065 135.676 56.1075 136.179 56.1075ZM136.179 74.5365C134.667 74.5296 133.18 74.1539 131.846 73.4419C130.513 72.7299 129.373 71.7031 128.525 70.4506C128.587 67.8986 133.627 66.4936 136.179 66.4936C138.73 66.4936 143.77 67.8986 143.832 70.4506C142.984 71.7023 141.844 72.7286 140.51 73.4407C139.177 74.1528 137.69 74.5293 136.179 74.5376V74.5365Z" fill="#3D3FE0"/>
<path id="Rectangle 26" d="M157.39 99.5578H112.626V102.924H157.39V99.5578Z" fill="#E6E6E6"/>
<path id="Rectangle 27" d="M162.972 108.304H106.636V111.67H162.972V108.304Z" fill="#E6E6E6"/>
<path id="Rectangle 25-2" d="M176.073 133.428H96.7115V212.823H176.073V133.428Z" fill="#E6E6E6"/>
<path id="Rectangle 25-3" d="M173.977 135.108H97.9733V211.144H173.977V135.108Z" fill="white"/>
<g id="Group 22">
<path id="Rectangle 28" d="M143.211 142.448H113.625V144.672H143.211V142.448Z" fill="#E6E6E6"/>
<path id="Rectangle 29" d="M159.311 148.979H113.625V151.203H159.311V148.979Z" fill="#3D3FE0"/>
<path id="Rectangle 30" d="M151.333 155.199H114.1V157.423H151.333V155.199Z" fill="#E6E6E6"/>
<path id="Rectangle 31" d="M135.361 162.023H113.625V164.248H135.361V162.023Z" fill="#E6E6E6"/>
<path id="Rectangle 32" d="M146.431 168.689H113.625V170.914H146.431V168.689Z" fill="#3D3FE0"/>
<path id="Rectangle 38" d="M143.211 175.397H113.625V177.621H143.211V175.397Z" fill="#E6E6E6"/>
<path id="Rectangle 39" d="M159.311 181.927H113.625V184.152H159.311V181.927Z" fill="#3D3FE0"/>
<path id="Rectangle 40" d="M151.333 188.147H114.1V190.372H151.333V188.147Z" fill="#E6E6E6"/>
<path id="Rectangle 41" d="M135.361 194.972H113.625V197.197H135.361V194.972Z" fill="#E6E6E6"/>
<path id="Rectangle 42" d="M146.431 201.638H113.625V203.863H146.431V201.638Z" fill="#E6E6E6"/>
</g>
<g id="Group 23">
<path id="Path 385" d="M246.438 172.612C246.226 172.982 245.944 173.307 245.606 173.569C245.269 173.83 244.884 174.022 244.472 174.134C244.061 174.246 243.631 174.276 243.208 174.222C242.785 174.168 242.377 174.032 242.006 173.82C241.636 173.608 241.311 173.325 241.05 172.988C240.789 172.651 240.597 172.265 240.485 171.853C240.373 171.442 240.343 171.012 240.397 170.589C240.451 170.165 240.587 169.757 240.799 169.386C240.806 169.374 240.814 169.361 240.821 169.349C240.912 169.196 241.014 169.051 241.127 168.914L238.395 149.433L238.313 148.85L237.758 144.875L237.676 144.302L237.979 144.316L243.272 144.558L244.691 144.622L244.869 148.248L245.876 168.637C246.402 169.14 246.743 169.806 246.845 170.527C246.947 171.248 246.804 171.982 246.438 172.612Z" fill="#FFB8B8"/>
<path id="Path 386" d="M238.329 149.026L245.05 148.409C245.399 148.376 245.72 148.207 245.944 147.938C246.169 147.669 246.277 147.322 246.247 146.973L245.002 132.989C244.942 132.323 244.752 131.674 244.442 131.081C244.132 130.487 243.708 129.961 243.195 129.531C242.681 129.102 242.088 128.778 241.45 128.578C240.811 128.378 240.139 128.305 239.473 128.365C238.806 128.424 238.158 128.615 237.565 128.925C236.972 129.235 236.445 129.659 236.016 130.173C235.587 130.686 235.263 131.279 235.063 131.918C234.863 132.557 234.79 133.229 234.85 133.896C234.858 133.993 234.87 134.089 234.884 134.184L236.899 147.9C236.946 148.214 237.103 148.501 237.343 148.709C237.584 148.917 237.89 149.031 238.208 149.032C238.248 149.033 238.289 149.031 238.329 149.026Z" fill="#3D3FE0"/>
<path id="Path 387" d="M243.423 137.729C244.103 135.803 244.135 133.707 243.513 131.761C242.892 129.815 241.651 128.126 239.98 126.951C237.446 125.216 233.977 124.593 230.242 129.041C222.772 137.938 220.815 147.725 220.815 147.725L236.112 150.216C236.112 150.216 241.314 143.855 243.423 137.729Z" fill="#3D3FE0"/>
<path id="Path 388" d="M218.684 237.948H214.322L212.248 221.119H218.684L218.684 237.948Z" fill="#FFB8B8"/>
<path id="Path 389" d="M205.913 241.999H219.619V236.701H211.208C209.804 236.701 208.457 237.259 207.464 238.253C206.47 239.246 205.913 240.594 205.913 241.999Z" fill="#2F2E41"/>
<path id="Path 390" d="M254.539 234.142L250.398 235.512L243.148 220.185L249.26 218.164L254.539 234.142Z" fill="#FFB8B8"/>
<path id="Path 391" d="M243.683 241.999L256.697 237.696L255.035 232.665L247.049 235.306C246.389 235.524 245.778 235.871 245.252 236.325C244.725 236.78 244.293 237.333 243.981 237.955C243.668 238.576 243.481 239.253 243.43 239.947C243.379 240.641 243.465 241.338 243.683 241.999Z" fill="#2F2E41"/>
<path id="Ellipse 65" d="M233.821 122.538C238.647 122.538 242.558 118.625 242.558 113.797C242.558 108.97 238.647 105.056 233.821 105.056C228.996 105.056 225.084 108.97 225.084 113.797C225.084 118.625 228.996 122.538 233.821 122.538Z" fill="#FFB8B8"/>
<path id="Path 392" d="M226.171 233.263L230.221 206.521C230.265 206.235 230.406 205.974 230.62 205.781C230.835 205.588 231.11 205.476 231.398 205.463C231.686 205.45 231.97 205.538 232.201 205.712C232.431 205.885 232.594 206.133 232.662 206.414L238.83 231.899C238.927 232.29 239.167 232.63 239.502 232.853C239.836 233.076 240.242 233.165 240.64 233.104L257.653 230.369C257.878 230.332 258.093 230.248 258.284 230.122C258.474 229.996 258.635 229.83 258.757 229.636C258.878 229.442 258.956 229.225 258.986 228.998C259.016 228.772 258.997 228.541 258.931 228.322L236.747 155.153C236.684 154.945 236.677 154.724 236.725 154.512L237.464 151.31C237.545 150.962 237.508 150.598 237.358 150.275C237.208 149.951 236.954 149.687 236.636 149.525C233.615 147.983 225.964 144.777 220.19 148.289C220.003 148.403 219.841 148.555 219.714 148.734C219.587 148.913 219.497 149.116 219.451 149.33L202.121 230.817C202.074 231.038 202.074 231.267 202.122 231.489C202.17 231.71 202.264 231.919 202.399 232.101C202.533 232.284 202.705 232.435 202.902 232.546C203.1 232.657 203.319 232.725 203.544 232.745L224.446 234.618C224.493 234.622 224.541 234.624 224.588 234.624C224.971 234.624 225.341 234.486 225.631 234.236C225.921 233.987 226.112 233.642 226.17 233.263L226.171 233.263Z" fill="#2F2E41"/>
<path id="Path 393" d="M239.615 107.622C238.956 107.225 238.372 106.717 237.888 106.12C237.649 105.818 237.491 105.46 237.431 105.079C237.37 104.699 237.409 104.31 237.543 103.949C237.984 102.974 239.296 102.668 240.312 102.998C241.329 103.329 242.114 104.127 242.857 104.896C243.511 105.572 244.184 106.281 244.493 107.171C244.802 108.06 244.644 109.188 243.872 109.728C243.114 110.257 242.025 110.04 241.297 109.472C240.568 108.903 240.117 108.059 239.687 107.24L239.615 107.622Z" fill="#2F2E41"/>
<path id="Path 394" d="M242.574 105.131C242.622 102.668 245.428 100.902 247.852 101.339C250.276 101.775 252.138 103.842 253.071 106.122C255.041 110.939 253.562 116.435 251.664 121.283C249.765 126.13 247.416 131.048 247.693 136.245C247.881 139.054 248.823 141.761 250.421 144.078C252.018 146.396 254.212 148.239 256.77 149.413C254.035 150.653 250.766 149.372 248.467 147.438C243.363 143.145 241.393 135.5 243.786 129.273C244.966 126.201 247.045 123.573 248.669 120.712C250.292 117.85 251.484 114.477 250.645 111.295C249.807 108.113 246.239 105.537 243.19 106.768L242.574 105.131Z" fill="#2F2E41"/>
<path id="Path 395" d="M233.297 117.676C234.059 116.388 234.827 114.698 233.435 113.572C233.133 113.339 232.786 113.168 232.417 113.07C232.047 112.972 231.662 112.949 231.283 113.003C229.714 113.192 228.004 113.27 226.485 112.7C225.915 112.503 225.391 112.195 224.942 111.792C224.494 111.389 224.131 110.9 223.876 110.354C223.093 108.495 224.074 106.236 225.713 105.061C226.716 104.368 227.901 103.987 229.12 103.965C230.339 103.944 231.537 104.282 232.564 104.939C234.687 104.001 237.264 104.418 239.193 105.71C241.123 107.002 242.443 109.071 243.16 111.28C243.821 113.181 243.935 115.23 243.489 117.193C243.13 118.558 242.447 119.817 241.499 120.863C240.55 121.908 239.364 122.71 238.04 123.2C237.525 123.403 236.965 123.467 236.416 123.386C235.868 123.305 235.351 123.081 234.916 122.737C234.916 122.737 233.712 121.685 233.335 120.419C233.045 119.445 232.891 118.364 233.297 117.676Z" fill="#2F2E41"/>
<path id="Path 397" d="M207.378 125.475C207.422 125.667 207.45 125.863 207.463 126.059L222.744 134.878L226.458 132.739L230.418 137.925L224.211 142.352C223.709 142.709 223.105 142.895 222.489 142.88C221.873 142.865 221.279 142.65 220.796 142.268L205.037 129.832C204.325 130.095 203.551 130.136 202.816 129.948C202.081 129.761 201.42 129.354 200.922 128.781C200.424 128.209 200.112 127.498 200.027 126.744C199.943 125.99 200.09 125.228 200.449 124.559C200.808 123.891 201.362 123.347 202.037 123.002C202.712 122.656 203.477 122.524 204.229 122.623C204.981 122.723 205.685 123.049 206.247 123.558C206.809 124.068 207.203 124.736 207.376 125.475H207.378Z" fill="#FFB8B8"/>
<path id="Path 398" d="M223.255 135.296L228.194 141.7C228.335 141.882 228.513 142.032 228.716 142.139C228.92 142.246 229.144 142.307 229.373 142.32C229.603 142.333 229.833 142.296 230.046 142.212C230.26 142.127 230.454 141.998 230.613 141.833L236.204 136.024C237.15 135.32 237.778 134.269 237.949 133.101C238.12 131.934 237.821 130.746 237.117 129.8C236.413 128.853 235.362 128.225 234.195 128.054C233.028 127.883 231.841 128.183 230.895 128.887C230.846 128.923 230.799 128.96 230.752 128.998L223.74 132.92C223.539 133.033 223.365 133.187 223.229 133.373C223.094 133.559 222.999 133.772 222.953 133.997C222.907 134.223 222.91 134.455 222.962 134.68C223.014 134.904 223.114 135.114 223.254 135.296L223.255 135.296Z" fill="#3D3FE0"/>
</g>
<g id="Group 24">
<path id="Path 552" d="M44.0042 150.558C43.8297 150.638 43.6618 150.732 43.5022 150.838L27.5471 144.026L26.9779 139.821L20.6025 139.782L20.9793 149.426L42.0384 154.999C42.0828 155.145 42.136 155.289 42.1978 155.429C42.5023 156.078 42.9919 156.624 43.6053 156.996C44.2187 157.369 44.9284 157.552 45.6453 157.522C46.3622 157.492 47.0543 157.251 47.6348 156.829C48.2153 156.408 48.6582 155.823 48.9079 155.15C49.1576 154.477 49.203 153.746 49.0383 153.047C48.8737 152.348 48.5064 151.714 47.9825 151.223C47.4586 150.733 46.8015 150.408 46.0938 150.29C45.3861 150.172 44.6592 150.266 44.0045 150.559L44.0042 150.558Z" fill="#A0616A"/>
<path id="Path 553" d="M18.2839 237.948H22.6452L24.7198 221.119H18.2832L18.2839 237.948Z" fill="#A0616A"/>
<path id="Path 554" d="M25.7602 236.702H17.3494V241.998H31.056C31.056 240.593 30.498 239.245 29.5049 238.252C28.5117 237.258 27.1647 236.7 25.7602 236.7H25.7602L25.7602 236.702Z" fill="#2F2E41"/>
<path id="Path 555" d="M1.32269 236.715L5.66259 237.143L9.37676 220.598L2.97114 219.969L1.32269 236.715Z" fill="#A0616A"/>
<path id="Path 556" d="M8.88778 236.209L0.518982 235.384L0 240.656L13.6377 242C13.7059 241.307 13.6371 240.608 13.4352 239.943C13.2334 239.277 12.9025 238.658 12.4614 238.12C12.0203 237.582 11.4776 237.137 10.8644 236.809C10.2512 236.481 9.57941 236.277 8.88744 236.209L8.88778 236.209Z" fill="#2F2E41"/>
<path id="Ellipse 84" d="M17.0698 121.971C21.8951 121.971 25.8068 118.058 25.8068 113.231C25.8068 108.403 21.8951 104.49 17.0698 104.49C12.2444 104.49 8.3327 108.403 8.3327 113.231C8.3327 118.058 12.2444 121.971 17.0698 121.971Z" fill="#A0616A"/>
<path id="Path 557" d="M23.6199 234.545C23.9948 234.546 24.358 234.414 24.6454 234.173C24.9327 233.932 25.1258 233.598 25.1904 233.228C27.4461 220.694 34.8264 179.704 35.0028 178.567C35.0068 178.541 35.0087 178.515 35.0085 178.488V175.432C35.0089 175.321 34.9741 175.212 34.9093 175.122L33.9346 173.756C33.8883 173.69 33.8275 173.636 33.7569 173.597C33.6864 173.559 33.608 173.537 33.5276 173.533C27.9704 173.273 9.77062 172.509 8.89126 173.608C8.00834 174.711 8.32209 178.059 8.39324 178.718L8.38968 178.787L0.213246 231.101C0.149197 231.519 0.251957 231.944 0.499285 232.286C0.746613 232.628 1.11861 232.859 1.53478 232.929L6.64163 233.771C7.02197 233.832 7.41159 233.754 7.73964 233.552C8.06769 233.35 8.31237 233.037 8.42917 232.67C10.0086 227.621 15.3051 210.634 17.1406 204.062C17.1524 204.02 17.1787 203.984 17.2147 203.961C17.2508 203.938 17.2941 203.928 17.3367 203.934C17.3793 203.94 17.4182 203.961 17.4463 203.994C17.4744 204.026 17.4898 204.068 17.4896 204.111C17.3978 210.377 17.1762 226.362 17.0983 231.883L17.0901 232.478C17.0867 232.88 17.2344 233.269 17.504 233.568C17.7736 233.867 18.1455 234.054 18.5461 234.092L23.4705 234.538C23.5201 234.543 23.57 234.545 23.6199 234.545Z" fill="#2F2E41"/>
<path id="Path 99" d="M22.6149 125.408C24.1395 126.315 25.052 127.982 25.5756 129.679C26.5449 132.818 27.1283 136.064 27.313 139.344L27.8665 149.167L34.7161 175.207C28.7793 180.232 25.3551 179.09 17.3633 174.979C9.37144 170.869 8.45864 176.35 8.45864 176.35L6.86071 154.193L4.57764 129.982C5.09021 129.365 5.67035 128.807 6.30719 128.319C8.41746 126.677 10.8727 125.535 13.488 124.98C16.1032 124.425 18.8103 124.472 21.4051 125.116L22.6149 125.408Z" fill="#E6E6E6"/>
<path id="Path 558" d="M24.8396 155.817C24.6555 155.886 24.4771 155.969 24.306 156.066L8.52945 148.166L8.26764 143.886L1.75993 143.437L1.41132 153.193L22.494 160.168C22.666 160.907 23.0588 161.576 23.6203 162.087C24.1818 162.597 24.8853 162.924 25.6372 163.025C26.389 163.125 27.1537 162.994 27.8293 162.649C28.505 162.304 29.0597 161.762 29.4196 161.094C29.7795 160.426 29.9276 159.664 29.8441 158.91C29.7606 158.155 29.4496 157.444 28.9523 156.871C28.4551 156.298 27.7952 155.89 27.0604 155.702C26.3257 155.513 25.551 155.552 24.8393 155.815L24.8396 155.817Z" fill="#A0616A"/>
<path id="Path 101" d="M4.69147 130.091C0.810105 131.461 0.126038 146.31 0.126038 146.31C4.69253 143.797 10.1722 147.909 10.1722 147.909C10.1722 147.909 11.3137 144.025 12.6836 139C13.0973 137.587 13.1468 136.092 12.8275 134.654C12.5081 133.216 11.8304 131.883 10.8573 130.777C10.8573 130.777 8.5732 128.72 4.69147 130.091Z" fill="#E6E6E6"/>
<path id="Path 102" d="M9.23735 115.542C10.3259 114.671 11.811 116.254 11.811 116.254L12.6819 108.414C12.6819 108.414 18.1245 109.066 21.6085 108.196C25.0925 107.326 25.6365 111.354 25.6365 111.354C25.8161 109.727 25.8525 108.087 25.7453 106.454C25.5276 104.493 22.6974 102.533 17.6898 101.226C12.6822 99.9192 10.0698 105.582 10.0698 105.582C6.58434 107.324 8.14741 116.414 9.23735 115.542Z" fill="#2F2E41"/>
</g>
</g>
<defs>
<clipPath id="clip0">
<rect width="259" height="242" fill="white"/>
</clipPath>
</defs>
</svg>
