<svg width="533" height="362" viewBox="0 0 533 362" fill="none" xmlns="http://www.w3.org/2000/svg">
<g clip-path="url(#clip0)">
<path d="M478.158 353.411C466.204 362.013 450.712 362.445 435.738 361.389C433.647 361.241 431.571 361.068 429.514 360.882C429.502 360.879 429.485 360.88 429.473 360.876C429.374 360.867 429.275 360.858 429.18 360.852C428.756 360.812 428.331 360.773 427.91 360.733L428.01 360.922L428.322 361.51C428.209 361.313 428.098 361.121 427.985 360.924C427.952 360.865 427.916 360.806 427.883 360.747C424.004 354.004 420.156 347.013 419.175 339.314C418.16 331.322 421.011 322.272 428.053 318.344C428.976 317.831 429.954 317.422 430.969 317.125C431.39 316.997 431.817 316.893 432.248 316.801C434.889 316.216 437.639 316.343 440.214 317.17C442.789 317.998 445.097 319.496 446.901 321.51C448.705 323.524 449.939 325.981 450.476 328.629C451.014 331.278 450.836 334.021 449.96 336.578C455.93 330.463 454.817 320.543 452.757 312.253C450.694 303.962 448.196 294.737 452.393 287.291C454.726 283.146 458.828 280.574 463.432 279.538C463.573 279.508 463.714 279.478 463.856 279.451C469.341 278.341 475.044 279.339 479.825 282.246C488.628 287.787 493.15 298.294 494.617 308.586C496.982 325.147 491.749 343.63 478.158 353.411Z" fill="white"/>
<path d="M474.299 326.863C473.952 330.516 473.073 334.099 471.691 337.499C470.417 340.507 468.7 343.309 466.597 345.81C462.224 350.922 456.686 354.911 450.449 357.44C445.732 359.37 440.789 360.697 435.738 361.388C433.647 361.241 431.571 361.068 429.514 360.882C429.502 360.878 429.485 360.88 429.473 360.876C429.374 360.867 429.275 360.858 429.18 360.852C428.756 360.812 428.331 360.773 427.91 360.733L428.01 360.922L428.322 361.51C428.209 361.313 428.097 361.12 427.985 360.924C427.952 360.865 427.916 360.806 427.883 360.747C431.669 356.978 434.496 352.358 436.127 347.274C437.758 342.189 438.145 336.789 437.256 331.524C436.325 326.296 434.171 321.362 430.969 317.124C431.39 316.997 431.817 316.893 432.248 316.801C433.465 318.463 434.533 320.229 435.438 322.079C438.688 328.676 439.724 336.142 438.395 343.373C437.159 349.916 434.08 355.972 429.519 360.828C429.918 360.8 430.321 360.767 430.716 360.732C438.19 360.099 445.65 358.494 452.43 355.206C458.225 352.464 463.256 348.34 467.08 343.199C471.186 337.542 472.995 330.738 473.306 323.823C473.545 316.373 472.763 308.925 470.982 301.687C469.255 294.306 466.63 287.164 463.166 280.42C463.089 280.267 463.073 280.09 463.123 279.926C463.172 279.762 463.283 279.623 463.432 279.538C463.556 279.455 463.709 279.423 463.856 279.451C463.928 279.47 463.995 279.505 464.051 279.554C464.108 279.602 464.153 279.663 464.183 279.731C464.61 280.564 465.029 281.398 465.433 282.241C468.793 289.262 471.267 296.673 472.797 304.304C474.283 311.666 475.076 319.366 474.299 326.863Z" fill="white"/>
<path d="M22.2374 115.06C21.8816 115.06 21.5288 114.994 21.1973 114.864C20.6612 114.658 20.2005 114.295 19.8762 113.821C19.552 113.348 19.3797 112.787 19.3822 112.213V82.4993C19.381 81.4936 18.9805 80.5293 18.2686 79.8181C17.5566 79.1069 16.5913 78.7068 15.5844 78.7057H9.49289C6.97608 78.7029 4.56316 77.7029 2.78351 75.9253C1.00385 74.1476 0.00280546 71.7374 -1.52588e-05 69.2234V9.4823C0.00280713 6.9683 1.00385 4.55808 2.78351 2.78042C4.56316 1.00275 6.97608 0.00281757 9.49289 0H224.358C226.875 0.00282091 229.288 1.00275 231.068 2.78042C232.847 4.55808 233.848 6.9683 233.851 9.4823V69.2234C233.848 71.7374 232.847 74.1476 231.068 75.9252C229.288 77.7029 226.875 78.7028 224.358 78.7057H58.5128C57.9864 78.7063 57.4658 78.8159 56.9839 79.0277C56.502 79.2394 56.0693 79.5486 55.7132 79.9359L24.3289 114.135C24.0639 114.426 23.741 114.659 23.3809 114.818C23.0208 114.978 22.6313 115.06 22.2374 115.06ZM9.49289 1.26353C7.31145 1.26599 5.22007 2.13268 3.67756 3.67347C2.13505 5.21426 1.26739 7.3033 1.26492 9.4823V69.2234C1.26739 71.4024 2.13505 73.4914 3.67756 75.0322C5.22007 76.573 7.31145 77.4397 9.49289 77.4421H15.5844C16.9267 77.4436 18.2135 77.9769 19.1626 78.925C20.1117 79.8731 20.6456 81.1586 20.6471 82.4993V112.213C20.6471 112.532 20.7434 112.843 20.9235 113.106C21.1035 113.369 21.3589 113.571 21.6561 113.686C21.9533 113.802 22.2784 113.825 22.589 113.753C22.8996 113.68 23.181 113.516 23.3965 113.281L54.7808 79.082C55.2556 78.5658 55.8323 78.1536 56.4747 77.8713C57.1171 77.5891 57.811 77.4429 58.5128 77.4421H224.358C226.54 77.4397 228.631 76.573 230.174 75.0322C231.716 73.4914 232.584 71.4024 232.586 69.2234V9.4823C232.584 7.3033 231.716 5.21426 230.174 3.67347C228.631 2.13268 226.54 1.26599 224.358 1.26353H9.49289Z" fill="white"/>
<path d="M23.285 26.9068C27.8726 26.9068 31.5916 23.1919 31.5916 18.6094C31.5916 14.0269 27.8726 10.312 23.285 10.312C18.6974 10.312 14.9783 14.0269 14.9783 18.6094C14.9783 23.1919 18.6974 26.9068 23.285 26.9068Z" fill="white"/>
<path d="M214.667 64.5217H19.184C18.6018 64.5224 18.0251 64.4084 17.487 64.1864C16.9489 63.9643 16.4599 63.6384 16.048 63.2274C15.636 62.8164 15.3092 62.3284 15.0862 61.7911C14.8633 61.2539 14.7485 60.678 14.7485 60.0964C14.7485 59.5148 14.8633 58.939 15.0862 58.4017C15.3092 57.8645 15.636 57.3764 16.048 56.9654C16.4599 56.5544 16.9489 56.2286 17.487 56.0065C18.0251 55.7844 18.6018 55.6705 19.184 55.6711H214.667C215.25 55.6705 215.826 55.7844 216.364 56.0065C216.902 56.2286 217.391 56.5544 217.803 56.9654C218.215 57.3764 218.542 57.8645 218.765 58.4017C218.988 58.939 219.103 59.5148 219.103 60.0964C219.103 60.678 218.988 61.2539 218.765 61.7911C218.542 62.3284 218.215 62.8164 217.803 63.2274C217.391 63.6384 216.902 63.9643 216.364 64.1864C215.826 64.4084 215.25 64.5224 214.667 64.5217Z" fill="white"/>
<path d="M150.983 45.7143H19.184C18.6018 45.715 18.0251 45.6011 17.487 45.379C16.9489 45.1569 16.4599 44.831 16.048 44.4201C15.636 44.0091 15.3092 43.521 15.0862 42.9837C14.8633 42.4465 14.7485 41.8706 14.7485 41.289C14.7485 40.7075 14.8633 40.1316 15.0862 39.5943C15.3092 39.0571 15.636 38.569 16.048 38.158C16.4599 37.747 16.9489 37.4212 17.487 37.1991C18.0251 36.977 18.6018 36.8631 19.184 36.8638H150.983C151.565 36.8631 152.142 36.977 152.68 37.1991C153.218 37.4212 153.707 37.747 154.119 38.158C154.531 38.569 154.858 39.0571 155.081 39.5943C155.304 40.1316 155.418 40.7075 155.418 41.289C155.418 41.8706 155.304 42.4465 155.081 42.9837C154.858 43.521 154.531 44.0091 154.119 44.4201C153.707 44.831 153.218 45.1569 152.68 45.379C152.142 45.6011 151.565 45.715 150.983 45.7143Z" fill="white"/>
<path d="M22.2375 325.814C21.8816 325.814 21.5289 325.747 21.1973 325.618C20.6613 325.412 20.2005 325.048 19.8763 324.575C19.5521 324.101 19.3798 323.54 19.3822 322.967V293.253C19.381 292.247 18.9806 291.283 18.2686 290.572C17.5566 289.861 16.5913 289.46 15.5844 289.459H9.4929C6.97609 289.456 4.56318 288.457 2.78353 286.679C1.00388 284.901 0.0028236 282.491 -3.8147e-06 279.977V220.236C0.00281857 217.722 1.00387 215.312 2.78352 213.534C4.56317 211.756 6.97609 210.756 9.4929 210.754H224.358C226.875 210.756 229.288 211.756 231.068 213.534C232.847 215.312 233.848 217.722 233.851 220.236V279.977C233.848 282.491 232.847 284.901 231.068 286.679C229.288 288.457 226.875 289.457 224.358 289.459H58.5128C57.9864 289.46 57.4658 289.57 56.9839 289.781C56.502 289.993 56.0693 290.302 55.7132 290.69L24.3289 324.889C24.0639 325.18 23.741 325.413 23.3809 325.572C23.0208 325.731 22.6313 325.814 22.2375 325.814ZM9.4929 212.017C7.31146 212.02 5.22008 212.886 3.67757 214.427C2.13506 215.968 1.26739 218.057 1.26493 220.236V279.977C1.2674 282.156 2.13506 284.245 3.67757 285.786C5.22008 287.327 7.31146 288.193 9.4929 288.196H15.5844C16.9267 288.197 18.2135 288.731 19.1626 289.679C20.1118 290.627 20.6456 291.912 20.6471 293.253V322.967C20.6471 323.285 20.7435 323.596 20.9235 323.859C21.1035 324.122 21.3589 324.325 21.6561 324.44C21.9533 324.556 22.2785 324.579 22.589 324.506C22.8996 324.434 23.181 324.27 23.3965 324.035L54.7808 289.836C55.2556 289.32 55.8323 288.907 56.4747 288.625C57.1171 288.343 57.8111 288.197 58.5128 288.196H224.358C226.54 288.193 228.631 287.327 230.174 285.786C231.716 284.245 232.584 282.156 232.586 279.977V220.236C232.584 218.057 231.716 215.968 230.174 214.427C228.631 212.886 226.54 212.02 224.358 212.017L9.4929 212.017Z" fill="white"/>
<path d="M339.536 216.289C339.142 216.288 338.753 216.206 338.393 216.047C338.033 215.887 337.71 215.655 337.445 215.364L306.06 181.164C305.704 180.777 305.272 180.468 304.79 180.256C304.308 180.044 303.787 179.935 303.261 179.934H137.415C134.899 179.931 132.486 178.931 130.706 177.154C128.926 175.376 127.925 172.966 127.923 170.452V110.711C127.925 108.197 128.926 105.786 130.706 104.009C132.486 102.231 134.899 101.231 137.415 101.228H352.281C354.798 101.231 357.211 102.231 358.99 104.009C360.77 105.786 361.771 108.197 361.774 110.711V170.452C361.771 172.966 360.77 175.376 358.99 177.154C357.211 178.931 354.798 179.931 352.281 179.934H346.189C345.182 179.935 344.217 180.335 343.505 181.046C342.793 181.758 342.393 182.722 342.392 183.728V213.441C342.394 214.015 342.222 214.576 341.897 215.049C341.573 215.523 341.112 215.887 340.576 216.092C340.245 216.222 339.892 216.288 339.536 216.289ZM137.415 102.492C135.234 102.494 133.143 103.361 131.6 104.902C130.058 106.443 129.19 108.532 129.187 110.711V170.452C129.19 172.631 130.058 174.72 131.6 176.26C133.143 177.801 135.234 178.668 137.415 178.67H303.261C303.963 178.671 304.657 178.817 305.299 179.1C305.941 179.382 306.518 179.794 306.993 180.31L338.377 214.51C338.593 214.744 338.874 214.909 339.185 214.981C339.495 215.053 339.82 215.03 340.118 214.915C340.415 214.799 340.67 214.597 340.85 214.334C341.03 214.071 341.127 213.76 341.127 213.441V183.728C341.128 182.387 341.662 181.101 342.611 180.153C343.56 179.205 344.847 178.672 346.189 178.67H352.281C354.462 178.668 356.554 177.801 358.096 176.26C359.639 174.72 360.506 172.631 360.509 170.452V110.711C360.506 108.532 359.639 106.443 358.096 104.902C356.554 103.361 354.462 102.494 352.281 102.492L137.415 102.492Z" fill="white"/>
<path d="M23.285 237.66C27.8726 237.66 31.5916 233.946 31.5916 229.363C31.5916 224.781 27.8726 221.066 23.285 221.066C18.6974 221.066 14.9783 224.781 14.9783 229.363C14.9783 233.946 18.6974 237.66 23.285 237.66Z" fill="white"/>
<path d="M214.667 275.275H19.184C18.6018 275.276 18.0251 275.162 17.487 274.94C16.9489 274.718 16.4599 274.392 16.048 273.981C15.636 273.57 15.3092 273.082 15.0862 272.545C14.8633 272.008 14.7485 271.432 14.7485 270.85C14.7485 270.269 14.8633 269.693 15.0862 269.155C15.3092 268.618 15.636 268.13 16.048 267.719C16.4599 267.308 16.9489 266.982 17.487 266.76C18.0251 266.538 18.6018 266.424 19.184 266.425H214.667C215.842 266.425 216.969 266.891 217.8 267.721C218.631 268.551 219.097 269.676 219.097 270.85C219.097 272.024 218.631 273.149 217.8 273.979C216.969 274.809 215.842 275.275 214.667 275.275Z" fill="white"/>
<path d="M150.983 256.468H19.184C18.6018 256.468 18.0251 256.355 17.487 256.132C16.9489 255.91 16.4599 255.584 16.048 255.173C15.636 254.762 15.3092 254.274 15.0862 253.737C14.8633 253.2 14.7485 252.624 14.7485 252.042C14.7485 251.461 14.8633 250.885 15.0862 250.348C15.3092 249.811 15.636 249.322 16.048 248.911C16.4599 248.5 16.9489 248.175 17.487 247.953C18.0251 247.73 18.6018 247.616 19.184 247.617H150.983C151.565 247.616 152.142 247.73 152.68 247.953C153.218 248.175 153.707 248.5 154.119 248.911C154.531 249.322 154.858 249.811 155.081 250.348C155.304 250.885 155.418 251.461 155.418 252.042C155.418 252.624 155.304 253.2 155.081 253.737C154.858 254.274 154.531 254.762 154.119 255.173C153.707 255.584 153.218 255.91 152.68 256.132C152.142 256.355 151.565 256.468 150.983 256.468Z" fill="white"/>
<path d="M151.207 127.582C155.795 127.582 159.514 123.867 159.514 119.284C159.514 114.702 155.795 110.987 151.207 110.987C146.62 110.987 142.901 114.702 142.901 119.284C142.901 123.867 146.62 127.582 151.207 127.582Z" fill="white"/>
<path d="M342.59 165.197H147.107C145.932 165.197 144.805 164.731 143.974 163.901C143.143 163.071 142.676 161.945 142.676 160.771C142.676 159.598 143.143 158.472 143.974 157.642C144.805 156.812 145.932 156.346 147.107 156.346H342.59C343.765 156.346 344.892 156.812 345.722 157.642C346.553 158.472 347.02 159.598 347.02 160.771C347.02 161.945 346.553 163.071 345.722 163.901C344.892 164.731 343.765 165.197 342.59 165.197Z" fill="white"/>
<path d="M278.905 146.389H147.107C146.524 146.39 145.948 146.276 145.41 146.054C144.871 145.832 144.382 145.506 143.97 145.095C143.559 144.684 143.232 144.196 143.009 143.659C142.786 143.121 142.671 142.545 142.671 141.964C142.671 141.382 142.786 140.806 143.009 140.269C143.232 139.732 143.559 139.244 143.97 138.833C144.382 138.422 144.871 138.096 145.41 137.874C145.948 137.652 146.524 137.538 147.107 137.539H278.905C279.488 137.538 280.064 137.652 280.602 137.874C281.141 138.096 281.63 138.422 282.041 138.833C282.453 139.244 282.78 139.732 283.003 140.269C283.226 140.806 283.341 141.382 283.341 141.964C283.341 142.545 283.226 143.121 283.003 143.659C282.78 144.196 282.453 144.684 282.041 145.095C281.63 145.506 281.141 145.832 280.602 146.054C280.064 146.276 279.488 146.39 278.905 146.389Z" fill="white"/>
<path d="M342.505 227.661C342.694 226.752 343.082 225.896 343.639 225.152C344.196 224.408 344.909 223.796 345.729 223.357C346.549 222.919 347.455 222.666 348.383 222.615C349.311 222.564 350.24 222.717 351.102 223.064L365.94 206.034L369.091 217.335L354.518 231.774C353.84 233.184 352.667 234.295 351.223 234.898C349.779 235.502 348.163 235.555 346.682 235.048C345.202 234.541 343.958 233.509 343.188 232.148C342.418 230.786 342.175 229.19 342.505 227.661Z" fill="#FFB8B8"/>
<path d="M423.937 147.745C432.517 147.745 439.471 140.798 439.471 132.228C439.471 123.659 432.517 116.712 423.937 116.712C415.358 116.712 408.403 123.659 408.403 132.228C408.403 140.798 415.358 147.745 423.937 147.745Z" fill="#FFB8B8"/>
<path d="M405.688 345.81L397.934 345.809L394.245 315.934L405.69 315.935L405.688 345.81Z" fill="#FFB8B8"/>
<path d="M407.666 353.318L382.664 353.317V353.001C382.664 351.724 382.916 350.46 383.405 349.281C383.894 348.102 384.61 347.03 385.514 346.127C386.418 345.225 387.491 344.509 388.671 344.02C389.852 343.532 391.117 343.28 392.395 343.281H392.396L407.666 343.281L407.666 353.318Z" fill="#2F2E41"/>
<path d="M429.089 354.023L421.336 354.022L420.262 324.861L429.091 324.148L429.089 354.023Z" fill="#FFB8B8"/>
<path d="M431.067 361.531L406.065 361.53V361.214C406.065 359.937 406.317 358.673 406.806 357.494C407.295 356.315 408.012 355.243 408.915 354.34C409.819 353.438 410.892 352.722 412.073 352.233C413.253 351.745 414.519 351.493 415.797 351.493H415.797L431.067 351.494L431.067 361.531Z" fill="#2F2E41"/>
<path d="M426.884 348.571L420.846 347.861C420.161 347.779 419.529 347.452 419.067 346.94C418.605 346.428 418.344 345.767 418.333 345.078L417.201 266.526C417.198 266.303 417.116 266.089 416.971 265.921C416.826 265.752 416.626 265.64 416.406 265.604C416.187 265.568 415.961 265.611 415.77 265.724C415.578 265.837 415.433 266.014 415.358 266.223L406.981 289.851L407.58 334.138C407.59 334.869 407.318 335.576 406.82 336.112C406.322 336.648 405.636 336.971 404.906 337.015L397.023 337.349C396.301 337.39 395.592 337.157 395.035 336.697C394.479 336.237 394.117 335.585 394.022 334.869L389.905 284.77L389.902 284.739L396.149 232.417L443.067 235.807L430.043 346.081C429.961 346.772 429.628 347.408 429.107 347.871C428.587 348.333 427.915 348.589 427.218 348.591C427.107 348.591 426.995 348.584 426.884 348.571Z" fill="#2F2E41"/>
<path d="M396.349 237.055C395.928 236.83 395.571 236.503 395.31 236.103C395.05 235.704 394.895 235.245 394.86 234.769C394.86 234.769 399.079 208.561 400.625 208.069L397.242 180.042C396.837 176.624 397.12 173.159 398.073 169.851C399.027 166.543 400.633 163.459 402.796 160.779C404.879 158.18 407.468 156.029 410.406 154.456C413.345 152.884 416.572 151.922 419.893 151.63C420.365 151.587 420.836 151.555 421.303 151.532C425.306 151.318 429.302 152.073 432.95 153.732C436.599 155.39 439.792 157.905 442.259 161.061C444.819 164.244 446.57 167.997 447.365 172.002C448.16 176.006 447.975 180.143 446.826 184.061L444.928 190.656V236.747C444.926 237.197 444.819 237.64 444.614 238.041C444.41 238.442 444.114 238.789 443.751 239.055C437.843 243.386 431.167 244.917 424.678 244.917C412.402 244.917 400.798 239.434 396.349 237.055Z" fill="white"/>
<path d="M359.926 228.62L351.766 222.525C351.445 222.286 351.179 221.982 350.984 221.634C350.79 221.285 350.671 220.899 350.635 220.502C350.599 220.104 350.648 219.703 350.778 219.326C350.908 218.948 351.115 218.602 351.388 218.31L400.001 166.206C401.562 164.548 403.666 163.504 405.931 163.263C408.197 163.022 410.473 163.601 412.348 164.894L412.348 164.895C413.49 165.69 414.443 166.727 415.138 167.932C415.833 169.137 416.254 170.481 416.37 171.867C416.487 173.253 416.296 174.647 415.811 175.951C415.326 177.255 414.56 178.436 413.566 179.41L363.624 228.373C363.185 228.807 362.616 229.086 362.003 229.167C361.391 229.248 360.769 229.126 360.232 228.82C360.126 228.76 360.024 228.693 359.926 228.62Z" fill="white"/>
<path d="M422.381 221.722C422.738 220.864 423.279 220.095 423.965 219.468C424.651 218.842 425.467 218.374 426.354 218.096C427.242 217.819 428.179 217.739 429.101 217.862C430.022 217.986 430.905 218.31 431.688 218.811L449.452 204.853L450.432 216.544L433.413 228.006C432.482 229.264 431.123 230.137 429.591 230.46C428.059 230.783 426.462 230.533 425.102 229.759C423.743 228.984 422.715 227.738 422.213 226.257C421.712 224.775 421.771 223.162 422.381 221.722Z" fill="#FFB8B8"/>
<path d="M438.281 227.171C437.811 227.025 437.387 226.759 437.052 226.398C436.716 226.038 436.481 225.597 436.369 225.118L434.575 217.59C434.443 217.056 434.472 216.494 434.657 215.976C434.843 215.458 435.177 215.006 435.618 214.676L447.691 201.634L429.933 174.281C428.589 172.628 427.831 170.576 427.778 168.447C427.725 166.318 428.38 164.232 429.64 162.514C430.645 161.145 431.994 160.066 433.551 159.386C435.108 158.706 436.817 158.448 438.505 158.64C440.193 158.832 441.801 159.467 443.165 160.479C444.528 161.492 445.6 162.846 446.271 164.405L462.781 196.506C464.422 199.695 464.832 203.376 463.931 206.847C463.031 210.318 460.883 213.337 457.898 215.329L441.026 226.587C440.509 227.049 439.84 227.304 439.147 227.305C438.853 227.305 438.561 227.259 438.281 227.171Z" fill="white"/>
<path d="M435.448 146.1C435.082 146.319 434.67 146.452 434.245 146.487C433.819 146.522 433.391 146.458 432.994 146.302C432.597 146.145 432.242 145.899 431.955 145.583C431.668 145.267 431.458 144.89 431.341 144.48L431.331 144.441C431.015 143.15 431.265 141.799 431.346 140.472C431.428 139.145 431.29 137.689 430.381 136.719C428.686 134.91 425.692 135.89 423.252 135.443C421.823 135.132 420.556 134.312 419.688 133.136C418.82 131.959 418.412 130.507 418.539 129.052C418.572 128.776 418.625 128.5 418.684 128.223C418.833 127.524 418.817 126.799 418.639 126.107C418.46 125.414 418.123 124.773 417.654 124.232C417.185 123.692 416.597 123.267 415.936 122.992C415.276 122.716 414.56 122.598 413.845 122.645C411.383 122.799 408.728 123.559 406.68 121.747C405.929 121.032 405.406 120.112 405.175 119.102C404.944 118.092 405.016 117.036 405.382 116.066C406.528 112.705 409.807 110.931 413.057 109.948C417.076 108.765 421.308 108.491 425.447 109.147C429.585 109.802 433.525 111.371 436.98 113.738C439.044 115.174 440.974 116.983 441.862 119.333C442.751 121.683 442.344 124.657 440.377 126.222C441.917 127.833 443.006 129.821 443.535 131.985C444.064 134.15 444.014 136.415 443.391 138.554C442.432 141.7 437.791 144.737 435.448 146.1Z" fill="#2F2E41"/>
<path d="M533 361.368C533 361.536 532.933 361.696 532.814 361.815C532.696 361.933 532.535 362 532.368 362H291.397C291.229 362 291.069 361.933 290.95 361.815C290.831 361.697 290.765 361.536 290.765 361.368C290.765 361.201 290.831 361.04 290.95 360.922C291.069 360.803 291.229 360.737 291.397 360.737H532.368C532.535 360.737 532.696 360.804 532.814 360.922C532.933 361.04 533 361.201 533 361.368Z" fill="white"/>
</g>
<defs>
<clipPath id="clip0">
<rect width="533" height="362" fill="white"/>
</clipPath>
</defs>
</svg>
