<svg width="516" height="408" viewBox="0 0 516 408" fill="none" xmlns="http://www.w3.org/2000/svg">
<g clip-path="url(#clip0_818_282)">
<path d="M516 8.4906H206.552V155.448H516V8.4906Z" fill="#080966"/>
<path d="M507.152 21.0925H215.401V143.704H507.152V21.0925Z" fill="white"/>
<path d="M515.868 0H206.42V13.1569H515.868V0Z" fill="#E053CC"/>
<path d="M216.189 10.1752C217.535 10.1752 218.626 9.08337 218.626 7.73657C218.626 6.38977 217.535 5.29797 216.189 5.29797C214.844 5.29797 213.753 6.38977 213.753 7.73657C213.753 9.08337 214.844 10.1752 216.189 10.1752Z" fill="white"/>
<path d="M225.438 10.1752C226.784 10.1752 227.875 9.08337 227.875 7.73657C227.875 6.38977 226.784 5.29797 225.438 5.29797C224.092 5.29797 223.001 6.38977 223.001 7.73657C223.001 9.08337 224.092 10.1752 225.438 10.1752Z" fill="white"/>
<path d="M234.687 10.1752C236.033 10.1752 237.123 9.08337 237.123 7.73657C237.123 6.38977 236.033 5.29797 234.687 5.29797C233.341 5.29797 232.25 6.38977 232.25 7.73657C232.25 9.08337 233.341 10.1752 234.687 10.1752Z" fill="white"/>
<path d="M438.467 40.9329H389.961V123.865H438.467V40.9329Z" fill="#F2F2F2"/>
<path d="M381.924 40.9314H284.085V63.7594H381.924V40.9314Z" fill="#E053CC"/>
<path d="M381.924 70.1166H284.085V94.6784H381.924V70.1166Z" fill="#F2F2F2"/>
<path d="M381.924 101.036H284.085V123.864H381.924V101.036Z" fill="#F2F2F2"/>
<path d="M147.638 245.214C147.647 243.532 147.301 241.868 146.623 240.33C145.945 238.792 144.95 237.414 143.703 236.288C142.456 235.161 140.985 234.311 139.387 233.793C137.789 233.275 136.099 233.101 134.429 233.282C133.901 233.342 133.377 233.439 132.862 233.571L92.5066 198.952L94.9182 185.943L75.0276 179.491L69.0304 200.339C68.321 202.841 68.4366 205.506 69.36 207.937C70.2834 210.368 71.9654 212.436 74.1564 213.835L123.801 245.26C123.801 245.651 123.821 246.041 123.862 246.43C124.043 248.101 124.575 249.716 125.423 251.167C126.272 252.619 127.417 253.874 128.783 254.852C130.15 255.83 131.708 256.507 133.355 256.84C135.002 257.173 136.7 257.154 138.339 256.785C138.815 256.679 139.285 256.543 139.744 256.379C142.042 255.547 144.03 254.032 145.441 252.036C146.852 250.039 147.619 247.659 147.638 245.214V245.214Z" fill="#FFB6B6"/>
<path d="M47.3087 285.364H99.3403C99.3403 286.861 152.965 288.076 152.965 288.076C153.807 288.71 154.574 289.438 155.252 290.245C157.289 292.676 158.402 295.749 158.395 298.922V301.091C158.394 304.687 156.966 308.135 154.426 310.677C151.886 313.219 148.441 314.648 144.848 314.649H47.3087C43.7168 314.646 40.2728 313.217 37.7329 310.675C35.193 308.133 33.7647 304.686 33.7616 301.091V298.922C33.7666 295.328 35.1955 291.882 37.735 289.34C40.2745 286.799 43.7173 285.369 47.3087 285.364V285.364Z" fill="#3F3D56"/>
<path d="M103.907 314.111H89.818V405.222H103.907V314.111Z" fill="#3F3D56"/>
<path d="M144.007 406.355C144.007 408.061 122.657 407.015 96.3207 407.015C69.9845 407.015 48.6348 408.061 48.6348 406.355C48.6348 404.649 69.9845 391.121 96.3207 391.121C122.657 391.121 144.007 404.649 144.007 406.355Z" fill="#3F3D56"/>
<path d="M131.288 394.048L144.574 394.046L150.895 359.558L131.286 359.559L131.288 394.048Z" fill="#FFB6B6"/>
<path d="M127.899 406.937L170.741 406.935V406.393C170.741 404.202 170.31 402.031 169.472 400.007C168.634 397.982 167.406 396.142 165.857 394.593C164.309 393.043 162.471 391.814 160.448 390.975C158.425 390.136 156.256 389.704 154.066 389.704H154.065L127.898 389.706L127.899 406.937Z" fill="#2F2E41"/>
<path d="M151.16 372.66L177.649 313.213C179.86 308.203 180.105 302.542 178.334 297.36C176.563 292.177 172.906 287.852 168.091 285.246L110.637 254.412L84.4193 252.18L60.2353 249.98L60.061 250.276C59.8379 250.653 54.6381 259.642 58.153 269.498C60.8191 276.974 67.754 282.813 78.765 286.854C104.466 296.286 134.156 304.346 145.727 307.374C146.239 307.505 146.717 307.742 147.13 308.071C147.543 308.4 147.881 308.813 148.124 309.282C148.367 309.746 148.511 310.256 148.547 310.778C148.584 311.3 148.512 311.825 148.336 312.318L123.728 367.651C123.471 368.353 123.378 369.104 123.457 369.848C123.536 370.591 123.785 371.306 124.184 371.938C124.583 372.57 125.121 373.102 125.758 373.492C126.395 373.883 127.113 374.122 127.856 374.191L146.244 375.531C146.4 375.546 146.556 375.553 146.71 375.553C147.652 375.553 148.573 375.279 149.363 374.766C150.153 374.253 150.777 373.521 151.16 372.66V372.66Z" fill="#CBCBCB"/>
<path d="M122.618 394.048L135.904 394.046L142.225 359.558L122.616 359.559L122.618 394.048Z" fill="#FFB6B6"/>
<path d="M119.229 406.937L162.071 406.935V406.393C162.071 404.202 161.64 402.031 160.802 400.007C159.964 397.982 158.736 396.142 157.187 394.593C155.639 393.043 153.801 391.814 151.777 390.975C149.754 390.136 147.586 389.704 145.396 389.704H145.394L119.228 389.706L119.229 406.937Z" fill="#2F2E41"/>
<path d="M141.406 375.914L167.895 316.467C170.106 311.457 170.351 305.796 168.58 300.613C166.809 295.431 163.152 291.106 158.337 288.5L100.883 257.666L74.6654 255.434L55.7233 253.79L55.7259 253.53C55.5028 253.907 50.3031 262.895 53.8179 272.752C56.484 280.228 58 286.067 69.0111 290.108C94.712 299.54 124.402 307.6 135.973 310.628C136.485 310.758 136.963 310.996 137.376 311.325C137.789 311.654 138.127 312.067 138.37 312.536C138.613 313 138.757 313.509 138.794 314.032C138.83 314.554 138.758 315.079 138.582 315.572L113.974 370.905C113.717 371.607 113.624 372.358 113.703 373.102C113.782 373.845 114.031 374.56 114.43 375.192C114.829 375.824 115.367 376.355 116.004 376.746C116.641 377.137 117.359 377.376 118.102 377.445L136.49 378.785C136.646 378.8 136.802 378.807 136.956 378.807C137.898 378.807 138.82 378.533 139.609 378.02C140.399 377.507 141.023 376.775 141.406 375.914Z" fill="#CBCBCB"/>
<path d="M91.4877 254.875C92.7577 253.975 110.996 263.552 114.247 255.959C99.0741 217.996 109.53 201.603 100.236 179.834C98.5987 176.079 96.1326 172.744 93.0228 170.08C89.913 167.416 86.2404 165.493 82.2809 164.454L58.1676 163.235L58.0427 163.296C52.6013 165.963 48.1637 170.314 45.3879 175.705C42.612 181.095 41.6457 187.237 42.6322 193.22C42.718 216.912 56.8821 234.982 51.9295 252.166C51.7218 252.885 51.6612 253.638 51.7513 254.38C51.8414 255.122 52.0804 255.839 52.4539 256.487C52.816 257.113 53.3025 257.658 53.8832 258.089C54.464 258.52 55.1267 258.827 55.8306 258.991L87.6701 254.741C88.4139 254.918 89.1869 254.934 89.9375 254.789C90.6881 254.643 91.3992 254.339 92.0232 253.897L91.4877 254.875Z" fill="#2F2E41"/>
<path d="M66.215 154.222C80.916 154.222 92.8335 142.294 92.8335 127.581C92.8335 112.869 80.916 100.941 66.215 100.941C51.514 100.941 39.5964 112.869 39.5964 127.581C39.5964 142.294 51.514 154.222 66.215 154.222Z" fill="#FFB6B6"/>
<path d="M57.7364 152.034C59.1507 152.653 62.0469 141.375 60.7495 139.119C58.8202 135.764 58.9342 135.788 57.6534 133.569C56.3726 131.349 56.086 128.311 57.7446 126.358C59.4032 124.405 63.2415 124.664 63.9985 127.113C63.5115 122.462 68.108 118.724 72.661 117.673C77.214 116.623 82.0166 117.275 86.5947 116.34C91.9078 115.255 97.4358 110.798 95.316 104.95C94.9522 103.977 94.4076 103.081 93.7109 102.31C91.2616 99.5541 87.8356 98.3773 84.4858 97.2394C77.517 94.8722 70.3577 92.4753 63.0031 92.7366C50.9191 93.166 39.4965 101.526 35.4252 112.921C34.9184 114.343 34.5258 115.803 34.251 117.287C31.7267 130.872 39.6089 144.271 52.4109 149.444L57.7364 152.034Z" fill="#2F2E41"/>
<path d="M197.329 194.873L200.381 213.013C200.415 213.215 200.393 213.423 200.317 213.613L176.369 273.499C176.274 273.736 176.101 273.934 175.878 274.058C175.656 274.183 175.397 274.228 175.145 274.185C174.894 274.142 174.664 274.014 174.496 273.822C174.327 273.63 174.229 273.386 174.219 273.131L173.204 249.066C173.197 248.906 173.225 248.747 173.285 248.598L195.195 194.638C195.286 194.413 195.449 194.224 195.657 194.1C195.866 193.975 196.109 193.922 196.351 193.949C196.592 193.975 196.818 194.08 196.995 194.247C197.171 194.414 197.288 194.634 197.329 194.873V194.873Z" fill="#3F3D56"/>
<path d="M195.633 196.266L198.534 211.849L177.282 266.497L174.523 248.918L195.633 196.266Z" fill="#E053CC"/>
<path d="M102.654 273.22C103.177 275.263 171.826 277.474 172.538 276.857C173.177 276.065 173.73 275.208 174.189 274.3C174.909 273.014 175.575 271.724 175.575 271.724L174.447 249.996L106.822 242.763C106.822 242.763 103.83 260.896 102.891 269.226C102.678 270.546 102.599 271.884 102.654 273.22Z" fill="#3F3D56"/>
<path opacity="0.1" d="M165.599 252.295L165.605 271.014L135.695 268.886L137.018 250.261L165.599 252.295Z" fill="black"/>
<path opacity="0.1" d="M126.623 255.538L126.804 255.515L125.392 263.473L108.775 262.291L109.342 254.308L126.623 255.538Z" fill="black"/>
<path opacity="0.1" d="M102.654 273.22C103.177 275.263 171.826 277.474 172.538 276.857C173.177 276.065 173.73 275.208 174.189 274.3L102.891 269.226C102.678 270.546 102.599 271.884 102.654 273.22Z" fill="black"/>
<path d="M75.0882 240.773L132.997 251.589C133.142 251.951 133.305 252.307 133.487 252.653C134.274 254.134 135.363 255.434 136.684 256.466C138.006 257.499 139.53 258.242 141.156 258.646C142.79 259.057 144.492 259.115 146.15 258.814C147.807 258.514 149.381 257.862 150.767 256.904C153.276 255.179 155.032 252.56 155.673 249.581C156.315 246.603 155.794 243.492 154.217 240.886C152.64 238.28 150.127 236.376 147.193 235.565C144.259 234.754 141.126 235.096 138.436 236.523C137.967 236.774 137.517 237.058 137.088 237.372L86.7894 220.176L84.215 207.198L63.3514 208.58L65.5133 230.335C65.7756 232.874 66.8488 235.261 68.5736 237.141C70.2984 239.021 72.5829 240.295 75.0882 240.773V240.773Z" fill="#FFB6B6"/>
<path d="M62.6447 218.283L92.9609 208.311L85.8891 187.99C84.9501 185.291 83.0881 183.012 80.6324 181.554C78.1766 180.097 75.2851 179.555 72.4689 180.025V180.025C69.62 180.5 67.0348 181.979 65.1801 184.195C63.3255 186.411 62.3237 189.217 62.3556 192.108L62.6447 218.283Z" fill="#2F2E41"/>
<path d="M254.958 408H0.667431C0.490417 408 0.320653 407.93 0.195485 407.804C0.0703179 407.679 0 407.509 0 407.332C0 407.155 0.0703179 406.985 0.195485 406.86C0.320653 406.734 0.490417 406.664 0.667431 406.664H254.958C255.135 406.664 255.305 406.734 255.43 406.86C255.556 406.985 255.626 407.155 255.626 407.332C255.626 407.509 255.556 407.679 255.43 407.804C255.305 407.93 255.135 408 254.958 408Z" fill="#CBCBCB"/>
<path d="M353.876 386.955C366.073 393.272 371.495 407.026 371.495 407.026C371.495 407.026 357.144 410.539 344.947 404.221C332.751 397.904 327.328 384.15 327.328 384.15C327.328 384.15 341.68 380.637 353.876 386.955Z" fill="#F1F1F1"/>
<path d="M349.976 391.505C357.254 403.16 371.391 407.457 371.391 407.457C371.391 407.457 373.728 392.857 366.45 381.201C359.172 369.546 345.035 365.249 345.035 365.249C345.035 365.249 342.698 379.85 349.976 391.505Z" fill="#F1F1F1"/>
<path d="M393.784 407.735H317.697C317.52 407.735 317.35 407.665 317.225 407.539C317.1 407.414 317.03 407.244 317.03 407.067C317.03 406.89 317.1 406.72 317.225 406.595C317.35 406.47 317.52 406.399 317.697 406.399H393.784C393.961 406.399 394.131 406.47 394.256 406.595C394.381 406.72 394.452 406.89 394.452 407.067C394.452 407.244 394.381 407.414 394.256 407.539C394.131 407.665 393.961 407.735 393.784 407.735Z" fill="#CBCBCB"/>
</g>
<defs>
<clipPath id="clip0_818_282">
<rect width="516" height="408" fill="white"/>
</clipPath>
</defs>
</svg>
