<svg width="543" height="451" viewBox="0 0 543 451" fill="none" xmlns="http://www.w3.org/2000/svg">
<g clip-path="url(#clip0_818_160)">
<path d="M357.218 0H199.431C174.89 0 154.996 19.8857 154.996 44.4159V404.823C154.996 429.353 174.89 449.238 199.431 449.238H357.218C381.759 449.238 401.653 429.353 401.653 404.823V44.4159C401.653 19.8857 381.759 0 357.218 0Z" fill="#080966"/>
<path d="M397.492 44.4189V404.823C397.479 415.496 393.232 425.729 385.682 433.276C378.132 440.823 367.895 445.068 357.217 445.081H199.433C188.755 445.068 178.518 440.823 170.968 433.276C163.417 425.729 159.17 415.496 159.158 404.823V44.4189C159.17 33.7457 163.417 23.5133 170.968 15.9662C178.518 8.41912 188.755 4.17373 199.433 4.16138H220.065V11.2857C220.066 14.511 221.348 17.6041 223.629 19.8847C225.911 22.1654 229.005 23.4467 232.232 23.4469H324.418C327.644 23.4467 330.739 22.1654 333.021 19.8847C335.302 17.6041 336.584 14.511 336.584 11.2857V4.16138H357.217C367.895 4.17373 378.132 8.41912 385.682 15.9662C393.232 23.5133 397.479 33.7457 397.492 44.4189V44.4189Z" fill="white"/>
<path d="M153.861 91.1334C153.059 91.1325 152.29 90.8135 151.722 90.2463C151.155 89.6792 150.836 88.9103 150.835 88.1082V82.0579C150.835 81.2555 151.154 80.4861 151.721 79.9187C152.289 79.3514 153.059 79.0327 153.861 79.0327C154.664 79.0327 155.434 79.3514 156.001 79.9187C156.569 80.4861 156.888 81.2555 156.888 82.0579V88.1082C156.887 88.9103 156.568 89.6792 156 90.2463C155.433 90.8135 154.664 91.1325 153.861 91.1334V91.1334Z" fill="#080966"/>
<path d="M153.861 122.158C153.059 122.157 152.29 121.838 151.722 121.271C151.155 120.703 150.836 119.935 150.835 119.133V102.478C150.835 101.675 151.154 100.906 151.721 100.339C152.289 99.7713 153.059 99.4526 153.861 99.4526C154.664 99.4526 155.434 99.7713 156.001 100.339C156.569 100.906 156.888 101.675 156.888 102.478V119.133C156.887 119.935 156.568 120.703 156 121.271C155.433 121.838 154.664 122.157 153.861 122.158V122.158Z" fill="#080966"/>
<path d="M153.861 147.099C153.059 147.098 152.29 146.779 151.722 146.212C151.155 145.645 150.836 144.876 150.835 144.074V127.419C150.835 126.617 151.154 125.847 151.721 125.28C152.289 124.713 153.059 124.394 153.861 124.394C154.664 124.394 155.434 124.713 156.001 125.28C156.569 125.847 156.888 126.617 156.888 127.419V144.074C156.887 144.876 156.568 145.645 156 146.212C155.433 146.779 154.664 147.098 153.861 147.099V147.099Z" fill="#080966"/>
<path d="M402.031 133.486C401.229 133.485 400.459 133.166 399.892 132.599C399.325 132.032 399.005 131.263 399.005 130.461V89.8224C399.005 89.0201 399.323 88.2506 399.891 87.6833C400.459 87.116 401.228 86.7972 402.031 86.7972C402.834 86.7972 403.603 87.116 404.171 87.6833C404.739 88.2506 405.057 89.0201 405.057 89.8224V130.461C405.057 131.263 404.737 132.032 404.17 132.599C403.603 133.166 402.833 133.485 402.031 133.486V133.486Z" fill="#080966"/>
<path d="M284.826 13.8748H261.371C260.869 13.8748 260.388 13.6756 260.033 13.321C259.678 12.9664 259.479 12.4855 259.479 11.9841C259.479 11.4826 259.678 11.0017 260.033 10.6471C260.388 10.2925 260.869 10.0933 261.371 10.0933H284.826C285.327 10.0933 285.809 10.2925 286.163 10.6471C286.518 11.0017 286.717 11.4826 286.717 11.9841C286.717 12.4855 286.518 12.9664 286.163 13.321C285.809 13.6756 285.327 13.8748 284.826 13.8748Z" fill="white"/>
<path d="M296.932 13.4967C297.767 13.4967 298.445 12.8195 298.445 11.9841C298.445 11.1487 297.767 10.4715 296.932 10.4715C296.096 10.4715 295.418 11.1487 295.418 11.9841C295.418 12.8195 296.096 13.4967 296.932 13.4967Z" fill="white"/>
<path d="M478.75 430.344C479.302 430.364 479.848 430.214 480.312 429.914C480.776 429.614 481.137 429.179 481.345 428.667C481.554 428.155 481.6 427.591 481.477 427.052C481.354 426.513 481.069 426.025 480.659 425.654C480.589 425.385 480.538 425.191 480.468 424.922C480.983 423.575 481.89 422.412 483.071 421.583C484.252 420.754 485.653 420.297 487.096 420.27C488.539 420.242 489.957 420.646 491.169 421.43C492.38 422.213 493.33 423.341 493.896 424.667C497.163 432.113 501.373 439.814 499.394 448.069C512.706 419.158 507.745 383.4 487.432 358.977C481.853 355.974 477.303 350.588 476.072 344.295C478.828 345.199 482.231 342.933 480.138 340.06C479.233 338.964 478.318 337.876 477.413 336.779C487.74 325.572 500.338 342.911 488.997 358.011C492.798 362.684 496.101 367.741 498.851 373.1C498.173 367.388 498.862 361.597 500.86 356.203C502.89 351.174 506.743 346.919 510.13 342.556C514.248 337.241 522.851 339.593 523.476 346.283C519.641 347.583 519.194 353.143 523.602 353.861C522.568 366.328 514.536 377.851 503.376 383.421C507.627 394.994 509.362 407.34 508.464 419.636C510.306 405.258 525.693 401.627 536.417 395.817C537.098 395.371 537.895 395.133 538.71 395.131C539.525 395.13 540.323 395.366 541.006 395.81C541.689 396.254 542.228 396.888 542.557 397.633C542.887 398.378 542.992 399.203 542.86 400.007C541.378 400.626 539.962 401.39 538.631 402.289C538.007 402.716 537.532 403.326 537.269 404.035C537.005 404.743 536.968 405.516 537.162 406.247C537.355 406.977 537.77 407.63 538.349 408.116C538.928 408.602 539.644 408.897 540.397 408.96C535.093 422.452 521.133 431.611 506.706 431.697C505.377 437.732 503.424 443.613 500.879 449.244L479.468 449.448C479.389 449.211 479.318 448.966 479.246 448.729C481.23 448.834 483.218 448.697 485.168 448.319C479.865 442.164 475.78 439.037 478.749 430.344L478.75 430.344Z" fill="#F2F2F2"/>
<path d="M64.3099 430.344C63.7574 430.364 63.212 430.214 62.7477 429.914C62.2834 429.614 61.9226 429.179 61.7142 428.667C61.5058 428.155 61.4598 427.591 61.5825 427.052C61.7052 426.513 61.9907 426.025 62.4002 425.654C62.4708 425.385 62.5215 425.191 62.592 424.922C62.0763 423.575 61.1698 422.412 59.9888 421.583C58.8078 420.754 57.4061 420.297 55.9634 420.27C54.5206 420.242 53.1026 420.646 51.8911 421.43C50.6795 422.213 49.7296 423.341 49.1632 424.667C45.8963 432.113 41.6868 439.814 43.6652 448.069C30.3533 419.158 35.3146 383.4 55.6274 358.977C61.2065 355.974 65.7565 350.588 66.9876 344.295C64.232 345.199 60.8288 342.933 62.9215 340.06C63.8272 338.964 64.7415 337.876 65.6471 336.779C55.3192 325.572 42.7213 342.911 54.063 358.011C50.2612 362.684 46.9586 367.741 44.2088 373.1C44.8864 367.388 44.1978 361.597 42.1995 356.203C40.1701 351.174 36.317 346.919 32.9298 342.556C28.8115 337.241 20.2088 339.593 19.5841 346.283C23.4191 347.583 23.866 353.143 19.4581 353.861C20.4921 366.328 28.5237 377.851 39.6838 383.421C35.4326 394.994 33.6981 407.34 34.5957 419.636C32.7534 405.258 17.3666 401.627 6.64302 395.817C5.96123 395.371 5.16426 395.133 4.34931 395.131C3.53436 395.13 2.73666 395.366 2.05353 395.81C1.3704 396.254 0.831367 396.888 0.50218 397.633C0.172994 398.378 0.0678843 399.203 0.199678 400.007C1.68148 400.626 3.09813 401.39 4.42876 402.289C5.0522 402.716 5.52805 403.326 5.7911 404.035C6.05414 404.743 6.0915 405.516 5.89805 406.247C5.7046 406.977 5.28981 407.63 4.71054 408.116C4.13127 408.602 3.41587 408.897 2.66242 408.96C7.96713 422.452 21.927 431.611 36.3534 431.697C37.6823 437.732 39.6351 443.613 42.1803 449.244L63.5913 449.448C63.6704 449.211 63.7418 448.966 63.8131 448.729C61.8301 448.834 59.8416 448.697 57.892 448.319C63.1945 442.164 67.2797 439.037 64.3106 430.344L64.3099 430.344Z" fill="#F2F2F2"/>
<path d="M211.051 21.9878H190.622C189.619 21.9878 188.656 21.5894 187.947 20.8802C187.238 20.171 186.839 19.2092 186.839 18.2063C186.839 17.2034 187.238 16.2415 187.947 15.5324C188.656 14.8232 189.619 14.4248 190.622 14.4248H211.051C212.054 14.4248 213.016 14.8232 213.726 15.5324C214.435 16.2415 214.834 17.2034 214.834 18.2063C214.834 19.2092 214.435 20.171 213.726 20.8802C213.016 21.5894 212.054 21.9878 211.051 21.9878Z" fill="#E6E6E6"/>
<path d="M344.972 21.6096C346.852 21.6096 348.376 20.0859 348.376 18.2063C348.376 16.3267 346.852 14.803 344.972 14.803C343.091 14.803 341.567 16.3267 341.567 18.2063C341.567 20.0859 343.091 21.6096 344.972 21.6096Z" fill="#E6E6E6"/>
<path d="M355.564 21.6096C357.445 21.6096 358.969 20.0859 358.969 18.2063C358.969 16.3267 357.445 14.803 355.564 14.803C353.684 14.803 352.159 16.3267 352.159 18.2063C352.159 20.0859 353.684 21.6096 355.564 21.6096Z" fill="#E6E6E6"/>
<path d="M366.157 21.6096C368.037 21.6096 369.562 20.0859 369.562 18.2063C369.562 16.3267 368.037 14.803 366.157 14.803C364.276 14.803 362.752 16.3267 362.752 18.2063C362.752 20.0859 364.276 21.6096 366.157 21.6096Z" fill="#E6E6E6"/>
<path d="M342.591 74.8406H214.193C211.706 74.8441 209.322 75.8332 207.563 77.5912C205.804 79.3492 204.815 81.7325 204.811 84.2187V167.645C204.815 170.132 205.804 172.515 207.563 174.273C209.322 176.031 211.706 177.02 214.193 177.023H342.591C345.079 177.021 347.464 176.033 349.223 174.274C350.982 172.516 351.971 170.132 351.973 167.645V84.2187C351.971 81.7321 350.982 79.348 349.223 77.5898C347.464 75.8315 345.079 74.8428 342.591 74.8406V74.8406Z" fill="#F2F2F2"/>
<path d="M302.394 110.456C290.791 130.962 277.986 150.766 264.048 169.764H243.912C257.101 153.704 270.299 137.644 283.507 121.584C287.296 116.959 291.409 112.115 297.092 110.236L302.394 110.456Z" fill="#080966"/>
<path d="M275.635 107.167C273.535 109.355 271.523 111.63 269.628 113.994C265.457 119.015 261.345 124.079 257.218 129.129C254.648 132.271 252.078 135.412 249.537 138.554C248.73 138.036 247.965 137.457 247.246 136.822C243.188 133.301 240.671 128.331 240.234 122.978C239.798 117.624 241.476 112.313 244.91 108.181C248.344 104.05 253.261 101.427 258.606 100.876C263.951 100.324 269.3 101.887 273.506 105.23C274.264 105.821 274.976 106.468 275.635 107.167V107.167Z" fill="#E053CC"/>
<path d="M351.973 104.782V107.83L350.611 107.331L331.446 100.328C325.204 98.0513 318.977 95.4496 312.531 93.8085C306.922 92.2048 300.966 92.2811 295.401 94.0278C290.44 95.8624 285.9 98.6791 282.054 102.309C280.352 103.882 278.702 105.493 277.106 107.165C276.584 107.717 276.062 108.269 275.547 108.821C274.004 110.5 272.513 112.217 271.099 113.994C266.93 119.016 262.814 124.083 258.69 129.127C256.118 132.274 253.545 135.412 251.003 138.551C242.514 148.935 234.075 159.339 225.687 169.763C224.557 169.75 223.432 169.608 222.335 169.34C230.892 158.714 239.49 148.115 248.128 137.545C248.324 137.303 248.521 137.061 248.718 136.819C249.732 135.556 250.768 134.285 251.797 133.022C256.102 127.751 260.41 122.485 264.72 117.223C267.853 113.396 270.962 109.554 274.337 105.924C274.541 105.69 274.753 105.463 274.972 105.228C275.298 104.881 275.623 104.54 275.956 104.185C283.288 96.6143 292.435 89.9211 303.391 89.7396C309.837 89.6413 316.064 91.6833 322.057 93.8387C328.51 96.1757 334.942 98.5505 341.388 100.91L351.973 104.782Z" fill="#080966"/>
<path d="M354.992 361.22H201.658C199.17 361.217 196.786 360.228 195.027 358.47C193.268 356.712 192.279 354.328 192.276 351.842V331.186C192.279 328.7 193.268 326.316 195.027 324.558C196.786 322.8 199.17 321.811 201.658 321.808H354.992C357.479 321.811 359.864 322.8 361.623 324.558C363.381 326.316 364.371 328.7 364.373 331.186V351.842C364.371 354.328 363.381 356.712 361.623 358.47C359.864 360.228 357.479 361.217 354.992 361.22Z" fill="#F2F2F2"/>
<path d="M354.992 255.339H201.658C199.17 255.336 196.786 254.347 195.027 252.589C193.268 250.831 192.279 248.447 192.276 245.961V225.305C192.279 222.818 193.268 220.435 195.027 218.677C196.786 216.919 199.17 215.93 201.658 215.927H354.992C357.479 215.93 359.864 216.919 361.623 218.677C363.381 220.435 364.371 222.818 364.373 225.305V245.961C364.371 248.447 363.381 250.831 361.623 252.589C359.864 254.347 357.479 255.336 354.992 255.339V255.339Z" fill="#F2F2F2"/>
<path d="M354.992 308.279H201.658C199.17 308.276 196.786 307.287 195.027 305.529C193.268 303.771 192.279 301.388 192.276 298.902V278.245C192.279 275.759 193.268 273.375 195.027 271.617C196.786 269.859 199.17 268.871 201.658 268.868H354.992C357.479 268.871 359.864 269.859 361.623 271.617C363.381 273.375 364.371 275.759 364.373 278.245V298.902C364.371 301.388 363.381 303.771 361.623 305.529C359.864 307.287 357.479 308.276 354.992 308.279V308.279Z" fill="#F2F2F2"/>
<path d="M296.954 337.979H251.775C251.239 337.979 250.725 337.766 250.346 337.387C249.967 337.008 249.754 336.494 249.754 335.958C249.754 335.423 249.967 334.909 250.346 334.53C250.725 334.151 251.239 333.938 251.775 333.938H296.954C297.49 333.938 298.004 334.151 298.383 334.53C298.762 334.909 298.975 335.423 298.975 335.958C298.975 336.494 298.762 337.008 298.383 337.387C298.004 337.766 297.49 337.979 296.954 337.979V337.979Z" fill="white"/>
<path d="M340.406 349.09H251.27C250.734 349.09 250.219 348.877 249.84 348.498C249.461 348.119 249.249 347.605 249.249 347.07C249.249 346.534 249.461 346.02 249.84 345.641C250.219 345.262 250.734 345.049 251.27 345.049H340.406C340.942 345.049 341.456 345.262 341.835 345.641C342.214 346.02 342.427 346.534 342.427 347.07C342.427 347.605 342.214 348.119 341.835 348.498C341.456 348.877 340.942 349.09 340.406 349.09V349.09Z" fill="white"/>
<path d="M227.773 355.059C235.257 355.059 241.324 348.995 241.324 341.514C241.324 334.033 235.257 327.969 227.773 327.969C220.289 327.969 214.222 334.033 214.222 341.514C214.222 348.995 220.289 355.059 227.773 355.059Z" fill="white"/>
<path d="M224.754 359.81C223.371 359.164 221.79 359.083 220.349 359.584C218.907 360.085 217.718 361.128 217.034 362.492C216.9 362.772 216.788 363.062 216.702 363.36L196.296 364.579L193.272 375.146L221.044 370.455C222.307 370.719 223.622 370.558 224.784 369.996C225.946 369.434 226.889 368.504 227.466 367.35C227.788 366.69 227.977 365.973 228.022 365.241C228.067 364.508 227.967 363.774 227.728 363.08C227.489 362.386 227.115 361.745 226.629 361.196C226.143 360.646 225.552 360.197 224.892 359.875C224.846 359.853 224.8 359.831 224.754 359.81Z" fill="#FFB6B6"/>
<path d="M179.713 307.686C178.368 307.136 176.921 306.882 175.469 306.941C174.018 307 172.596 307.371 171.301 308.029C170.005 308.686 168.867 309.615 167.962 310.751C167.058 311.888 166.409 313.206 166.06 314.616L160.45 337.261L161.505 376.879C161.505 376.879 190.788 382.495 195.704 378.885C200.619 375.275 200.158 372.587 200.619 375.275C201.081 377.962 203.191 379.09 203.22 378.021C203.249 376.952 203.488 377.134 204.713 376.812C205.938 376.49 211.345 374.498 211.345 374.498L211.587 363.203C211.587 363.203 202.649 359.816 200.48 360.826C198.312 361.837 200.942 363.514 198.312 361.837C195.682 360.16 195.394 354.867 194.944 359.637C194.495 364.407 193.178 365.296 191.206 363.175C189.234 361.053 180.099 362.408 180.099 362.408L185.912 318.369C186.205 316.154 185.755 313.905 184.633 311.972C183.512 310.039 181.782 308.532 179.713 307.686V307.686Z" fill="#E053CC"/>
<path d="M376.913 425.172L377.221 416.83L345.177 411.673L344.723 423.984L376.913 425.172Z" fill="#FFB6B6"/>
<path d="M371.096 427.683L370.792 414.326L376.505 414.537L385.727 402.189C386.183 401.579 386.821 401.131 387.55 400.909C388.278 400.688 389.058 400.705 389.776 400.958C390.494 401.211 391.113 401.687 391.541 402.317C391.969 402.946 392.185 403.695 392.157 404.456L391.571 420.323L385.82 422.849L391.431 424.125L391.21 430.108L371.096 427.683Z" fill="#2F2E41"/>
<path d="M196.567 444.302L298.061 432.504C298.061 432.504 341.89 435.035 352.174 428.348L363.018 426.98L363.605 411.058C363.605 411.058 356.974 411.107 353.162 409.331C349.349 407.555 351.999 405.383 348.364 407.519C344.729 409.655 345.113 409.912 342.302 408.93C339.492 407.949 210.614 402.683 210.614 402.683L196.567 444.302Z" fill="#2F2E41"/>
<path d="M330.31 437.393L336.212 431.486L316.23 405.921L307.519 414.638L330.31 437.393Z" fill="#FFB6B6"/>
<path d="M324.337 435.279L333.202 425.281L337.247 429.319L352.409 426.537C353.158 426.399 353.931 426.504 354.616 426.837C355.301 427.17 355.861 427.713 356.215 428.387C356.569 429.061 356.699 429.83 356.585 430.582C356.47 431.335 356.119 432.031 355.581 432.569L344.355 443.803L338.42 441.745L341.665 446.495L337.432 450.731L324.337 435.279Z" fill="#2F2E41"/>
<path d="M156.524 388.74L157.533 412.185C158.721 439.785 189.129 456.489 212.708 442.079C213.143 441.813 213.579 441.538 214.016 441.254C214.016 441.254 222.955 438.854 222.684 435.054C222.412 431.254 224.596 429.405 226.529 430.441C228.461 431.477 253.764 395.583 253.764 395.583C253.764 395.583 306.335 421.795 317.932 427.966L330.169 424.633C330.169 424.633 334.775 426.807 333.116 423.663C331.457 420.518 331.159 422.024 330.65 418.598C330.14 415.172 328.836 410.924 328.045 411.103C327.255 411.281 263.009 366.334 263.009 366.334C263.009 366.334 252.543 355.746 239.56 362.737C239.289 363.764 239.52 363.799 239.52 363.799L196.632 398.732L190.572 387.228L156.524 388.74Z" fill="#2F2E41"/>
<path d="M185.35 302.596L166.962 293.982L161.457 303.557C161.457 303.557 146.671 324.647 146.456 339.863C146.242 355.078 148.866 359.602 148.866 359.602C148.866 359.602 142.491 364.367 145.679 367.279C148.866 370.191 155.923 371.447 150.503 372.71C145.083 373.972 146.456 386.753 152.509 389.022C158.562 391.291 191.07 391.271 191.07 391.271C190.777 390.28 190.756 389.229 191.007 388.227C191.259 387.225 191.774 386.308 192.499 385.573C195.02 383.048 197.289 384.859 195.02 380.928C192.75 376.997 188.967 379.266 191.993 373.972C195.02 368.678 195.018 367.096 195.018 367.096C195.018 367.096 201.188 355.359 191.895 342.626C191.329 341.85 191.805 341.82 191.805 341.82L184.301 316.684L185.35 302.596Z" fill="#E053CC"/>
<path d="M155.716 266.375C155.872 270.258 153.424 275.758 152.218 279.075C150.93 282.621 156.515 287.329 160.091 288.359C160.277 287.131 160.89 286.007 161.822 285.185C161.565 286.356 161.542 287.567 161.756 288.746L191.981 295.624C197.419 289.33 202.886 280.281 201.694 269.368C201.979 267.296 201.646 265.185 200.736 263.302C199.826 261.418 198.38 259.845 196.578 258.78L181.298 249.757C174.799 248.278 166.614 247.385 161.919 251.405C159.822 253.27 158.174 255.586 157.1 258.179C156.025 260.771 155.552 263.573 155.716 266.375V266.375Z" fill="#2F2E41"/>
<path d="M182.733 292.299C192.344 292.299 200.135 284.511 200.135 274.904C200.135 265.297 192.344 257.509 182.733 257.509C173.122 257.509 165.331 265.297 165.331 274.904C165.331 284.511 173.122 292.299 182.733 292.299Z" fill="#FFB6B6"/>
<path d="M162.346 265.611L161.507 269.298L176.188 272.639C176.201 271.893 176.368 271.158 176.678 270.48C176.989 269.802 177.437 269.195 177.993 268.698C177.676 270.144 177.712 271.645 178.098 273.074C186.016 277.515 193.152 279.088 199.551 277.956C200.418 278.153 201.328 277.998 202.081 277.525C202.833 277.051 203.367 276.299 203.564 275.432V275.432C206.139 264.127 199.394 252.573 188.14 249.767C185.404 249.084 182.56 248.953 179.773 249.382C176.986 249.812 174.313 250.793 171.911 252.269C169.508 253.745 167.425 255.685 165.783 257.976C164.14 260.267 162.972 262.863 162.346 265.611V265.611Z" fill="#2F2E41"/>
<path d="M170.93 241.285C172.866 240.864 174.914 240.966 176.665 239.655L175.517 242.289C178.699 241.418 182.092 241.756 185.039 243.24C185.915 243.633 186.663 244.265 187.195 245.064C187.481 245.547 187.655 246.087 187.704 246.646C187.753 247.205 187.676 247.768 187.478 248.293C187.29 248.743 187.01 249.15 186.656 249.486C186.302 249.822 185.881 250.08 185.422 250.245C184.607 250.49 183.753 250.579 182.905 250.508C179.332 250.425 175.76 250.342 172.187 250.259C170.825 250.343 169.465 250.079 168.234 249.491C167.58 249.087 167.057 248.501 166.732 247.804C166.406 247.108 166.291 246.332 166.4 245.571C166.741 243.177 168.994 241.704 170.93 241.285Z" fill="#2F2E41"/>
<path d="M265.329 377.614C265.287 377.565 265.239 377.521 265.186 377.483C265.056 377.333 264.898 377.209 264.72 377.119L263.447 376.437L254.993 367.056C254.504 366.801 253.934 366.746 253.405 366.904L253.384 366.91L249.762 368.03L246.648 368.996L242.297 370.344L212.663 379.516L193.184 385.544C192.658 385.711 192.218 386.078 191.959 386.565C191.7 387.053 191.643 387.623 191.8 388.152C191.892 388.444 192.043 388.713 192.245 388.942L192.865 389.632L194.165 391.079L197.177 397.319L198.013 398.252C198.279 398.548 198.624 398.763 199.008 398.871C199.392 398.978 199.799 398.975 200.181 398.86L264.353 381.023C264.686 380.915 264.988 380.727 265.232 380.475C265.475 380.223 265.653 379.915 265.749 379.578C265.846 379.241 265.858 378.886 265.784 378.544C265.711 378.201 265.555 377.882 265.329 377.614V377.614Z" fill="#CCCCCC"/>
<path d="M261.519 284.813L260.276 285.014C259.935 285.071 259.631 285.26 259.429 285.54L258.882 286.305L253.943 298.649C253.742 298.931 253.661 299.282 253.718 299.623L254.297 303.14L252.11 365.917C252.165 366.242 252.34 366.534 252.599 366.737L262.188 379.558L262.412 379.735L262.895 380.113C263.142 380.305 263.45 380.402 263.762 380.389L264.577 380.35C264.762 380.341 264.943 380.293 265.108 380.209C265.273 380.125 265.419 380.007 265.535 379.862C265.652 379.719 265.736 379.553 265.783 379.374C265.83 379.195 265.838 379.008 265.807 378.826L263.025 285.887C262.969 285.546 262.779 285.24 262.498 285.039C262.217 284.837 261.867 284.756 261.525 284.812L261.519 284.813Z" fill="#CCCCCC"/>
<path d="M259.438 289.691L255.063 303.011L253.371 356.22L260.18 362.27L259.438 289.691Z" fill="#E053CC"/>
<path d="M225.607 370.854C224.225 370.208 222.644 370.127 221.202 370.628C219.761 371.129 218.572 372.172 217.888 373.536C217.753 373.816 217.642 374.106 217.555 374.404L197.15 375.623L194.126 386.19L221.898 381.499C223.161 381.763 224.476 381.601 225.638 381.04C226.8 380.478 227.743 379.547 228.32 378.394C228.97 377.061 229.064 375.525 228.582 374.124C228.099 372.722 227.079 371.569 225.746 370.919C225.7 370.897 225.654 370.875 225.607 370.854Z" fill="#FFB6B6"/>
<path d="M180.567 318.73C179.222 318.18 177.775 317.926 176.323 317.985C174.872 318.044 173.45 318.415 172.154 319.073C170.859 319.73 169.72 320.659 168.816 321.795C167.912 322.932 167.263 324.25 166.914 325.659L161.304 348.305L162.359 387.923C162.359 387.923 191.642 393.539 196.557 389.929C201.473 386.319 201.012 383.631 201.473 386.319C201.935 389.006 204.045 390.134 204.074 389.065C204.103 387.996 204.342 388.178 205.567 387.856C206.792 387.534 212.199 385.542 212.199 385.542L212.441 374.247C212.441 374.247 203.502 370.86 201.334 371.87C199.165 372.881 201.795 374.558 199.165 372.881C196.535 371.204 196.248 365.911 195.798 370.681C195.348 375.451 194.032 376.339 192.06 374.218C190.088 372.097 180.953 373.452 180.953 373.452L186.766 329.413C187.058 327.198 186.609 324.949 185.487 323.016C184.366 321.083 182.635 319.576 180.567 318.73V318.73Z" fill="#E053CC"/>
<path d="M3.9851e-06 450.1C-0.00034865 450.218 0.0227052 450.335 0.067831 450.445C0.112957 450.554 0.179271 450.654 0.262954 450.737C0.346636 450.821 0.446033 450.887 0.555435 450.932C0.664838 450.977 0.782083 451 0.900424 451H542.1C542.338 451 542.567 450.905 542.736 450.736C542.905 450.568 543 450.339 543 450.1C543 449.861 542.905 449.632 542.736 449.464C542.567 449.295 542.338 449.2 542.1 449.2H0.900378C0.782041 449.2 0.664808 449.223 0.555412 449.268C0.446017 449.313 0.346619 449.379 0.262942 449.463C0.179265 449.547 0.112955 449.646 0.067831 449.755C0.0227066 449.865 -0.000344604 449.982 3.9851e-06 450.1V450.1Z" fill="#CCCCCC"/>
<path d="M477.564 255.339H324.229C321.742 255.336 319.357 254.347 317.599 252.589C315.84 250.831 314.851 248.447 314.848 245.961V225.305C314.851 222.818 315.84 220.435 317.599 218.677C319.357 216.919 321.742 215.93 324.229 215.927H477.564C480.051 215.93 482.436 216.919 484.194 218.677C485.953 220.435 486.942 222.818 486.945 225.305V245.961C486.942 248.447 485.953 250.831 484.194 252.589C482.436 254.347 480.051 255.336 477.564 255.339V255.339Z" fill="#E6E6E6"/>
<path d="M419.525 232.098H374.347C373.811 232.098 373.297 231.885 372.917 231.506C372.538 231.127 372.326 230.613 372.326 230.077C372.326 229.542 372.538 229.028 372.917 228.649C373.297 228.27 373.811 228.057 374.347 228.057H419.525C420.061 228.057 420.575 228.27 420.954 228.649C421.333 229.028 421.546 229.542 421.546 230.077C421.546 230.613 421.333 231.127 420.954 231.506C420.575 231.885 420.061 232.098 419.525 232.098V232.098Z" fill="white"/>
<path d="M462.978 243.209H373.841C373.305 243.209 372.791 242.996 372.412 242.617C372.033 242.238 371.82 241.724 371.82 241.188C371.82 240.653 372.033 240.139 372.412 239.76C372.791 239.381 373.305 239.168 373.841 239.168H462.978C463.514 239.168 464.028 239.381 464.407 239.76C464.786 240.139 464.999 240.653 464.999 241.188C464.999 241.724 464.786 242.238 464.407 242.617C464.028 242.996 463.514 243.209 462.978 243.209V243.209Z" fill="white"/>
<path d="M350.345 249.178C357.828 249.178 363.895 243.113 363.895 235.633C363.895 228.152 357.828 222.088 350.345 222.088C342.861 222.088 336.794 228.152 336.794 235.633C336.794 243.113 342.861 249.178 350.345 249.178Z" fill="white"/>
<path d="M428.384 308.279H275.049C272.562 308.276 270.177 307.287 268.419 305.529C266.66 303.771 265.671 301.388 265.668 298.902V278.245C265.671 275.759 266.66 273.375 268.419 271.617C270.177 269.859 272.562 268.871 275.049 268.868H428.384C430.871 268.871 433.256 269.859 435.014 271.617C436.773 273.375 437.762 275.759 437.765 278.245V298.902C437.762 301.388 436.773 303.771 435.014 305.529C433.256 307.287 430.871 308.276 428.384 308.279V308.279Z" fill="#E6E6E6"/>
<path d="M370.345 285.038H325.167C324.631 285.038 324.116 284.825 323.737 284.446C323.358 284.068 323.146 283.554 323.146 283.018C323.146 282.482 323.358 281.968 323.737 281.589C324.116 281.211 324.631 280.998 325.167 280.998H370.345C370.881 280.998 371.395 281.211 371.774 281.589C372.153 281.968 372.366 282.482 372.366 283.018C372.366 283.554 372.153 284.068 371.774 284.446C371.395 284.825 370.881 285.038 370.345 285.038V285.038Z" fill="white"/>
<path d="M413.798 296.149H324.661C324.125 296.149 323.611 295.936 323.232 295.557C322.853 295.179 322.64 294.665 322.64 294.129C322.64 293.593 322.853 293.079 323.232 292.701C323.611 292.322 324.125 292.109 324.661 292.109H413.798C414.334 292.109 414.848 292.322 415.227 292.701C415.606 293.079 415.819 293.593 415.819 294.129C415.819 294.665 415.606 295.179 415.227 295.557C414.848 295.936 414.334 296.149 413.798 296.149V296.149Z" fill="white"/>
<path d="M301.165 302.118C308.648 302.118 314.715 296.054 314.715 288.573C314.715 281.093 308.648 275.029 301.165 275.029C293.681 275.029 287.614 281.093 287.614 288.573C287.614 296.054 293.681 302.118 301.165 302.118Z" fill="white"/>
</g>
<defs>
<clipPath id="clip0_818_160">
<rect width="543" height="451" fill="white"/>
</clipPath>
</defs>
</svg>
