<svg width="570" height="340" viewBox="0 0 570 340" fill="none" xmlns="http://www.w3.org/2000/svg">
<g clip-path="url(#clip0_818_318)">
<path d="M33.5861 260.834C16.809 254.73 2.24533 240.129 0.397827 222.37C16.6848 232.937 36.1843 237.403 55.4463 234.976C62.8715 234.013 71.0298 232.169 77.3838 236.13C81.3375 238.595 83.792 242.971 84.918 247.492C86.0439 252.013 85.9931 256.733 85.9357 261.392L86.4581 262.431C68.9325 265.834 50.3632 266.937 33.5861 260.834Z" fill="#F0F0F0"/>
<path d="M0.761822 222.281C9.31145 234.335 21.4413 243.388 35.4286 248.155C38.4215 249.235 41.5659 249.836 44.7459 249.936C47.8469 249.934 50.8906 249.101 53.5609 247.524C56.0802 246.104 58.4928 244.36 61.3134 243.577C62.7632 243.198 64.2767 243.129 65.7548 243.376C67.2329 243.623 68.6422 244.179 69.8901 245.009C73.0535 246.995 75.3146 250 77.4236 253.015C79.7653 256.363 82.1446 259.877 85.8001 261.909C86.243 262.156 85.835 262.829 85.3928 262.583C79.0329 259.047 76.6781 251.547 71.2647 246.987C68.7387 244.859 65.5563 243.48 62.218 244.168C59.2989 244.769 56.8095 246.565 54.271 248.025C51.6886 249.602 48.7596 250.522 45.7397 250.705C42.5648 250.767 39.4025 250.288 36.3883 249.289C29.5664 247.147 23.1235 243.947 17.2957 239.804C10.6183 235.112 4.79248 229.313 0.0703596 222.657C-0.221737 222.245 0.471635 221.872 0.761822 222.281V222.281Z" fill="white"/>
<path d="M30.8345 246.885C29.7162 249.124 27.8388 250.892 25.5375 251.874C23.2362 252.856 20.6608 252.987 18.2713 252.245C17.7883 252.094 18.0014 251.336 18.485 251.488C20.7089 252.183 23.1078 252.06 25.249 251.141C27.3901 250.223 29.1323 248.569 30.1613 246.478C30.3854 246.024 31.0573 246.434 30.8345 246.885V246.885Z" fill="white"/>
<path d="M52.3784 248.413C50.803 243.546 47.4514 239.452 42.9921 236.947C42.5501 236.7 42.9579 236.027 43.3994 236.274C48.035 238.889 51.5141 243.157 53.1424 248.225C53.2972 248.708 52.5324 248.893 52.3784 248.413Z" fill="white"/>
<path d="M11.5079 234.567C12.121 233.791 12.5318 232.875 12.7034 231.901C12.8751 230.927 12.8021 229.926 12.4912 228.987C12.3303 228.506 13.0953 228.321 13.2552 228.799C13.5939 229.838 13.6731 230.944 13.4859 232.02C13.2987 233.097 12.8507 234.111 12.1811 234.974C12.1248 235.061 12.0376 235.123 11.9372 235.148C11.8369 235.173 11.7309 235.158 11.6408 235.107C11.5519 235.053 11.4881 234.966 11.4632 234.865C11.4383 234.763 11.4544 234.657 11.5079 234.567V234.567Z" fill="white"/>
<path d="M42.7411 179.229C42.8501 179.526 42.9591 179.824 43.0745 180.123C44.5608 184.114 46.3689 187.978 48.481 191.677C48.6397 191.965 48.8049 192.255 48.9717 192.539C54.155 201.395 60.9373 209.212 68.9739 215.592C72.1742 218.128 75.5627 220.417 79.1101 222.438C84.0095 225.23 89.5438 227.867 93.1293 231.993C93.5082 232.419 93.8603 232.869 94.1837 233.339L87.6851 261.713C87.638 261.771 87.5973 261.829 87.5501 261.887L87.3424 263.032C87.1521 262.94 86.9568 262.841 86.7666 262.75C86.656 262.697 86.5469 262.638 86.4363 262.585C86.3631 262.548 86.2898 262.511 86.2216 262.482C86.1971 262.469 86.1728 262.457 86.1548 262.446C86.0866 262.417 86.0263 262.382 85.9646 262.355C84.8711 261.804 83.7796 261.246 82.6901 260.678C82.6837 260.677 82.6836 260.677 82.6786 260.669C74.3354 256.424 66.5251 251.204 59.4115 245.119C59.2017 244.934 58.9854 244.748 58.7785 244.551C55.6494 241.771 52.7527 238.74 50.1174 235.488C48.6801 233.702 47.3341 231.845 46.0846 229.924C42.8655 224.953 40.4483 219.506 38.9215 213.784C35.8796 202.376 36.5196 190.122 42.2924 179.998C42.4403 179.739 42.5867 179.486 42.7411 179.229Z" fill="#F0F0F0"/>
<path d="M43.0865 179.375C42.6565 194.147 46.8914 208.68 55.1899 220.908C56.9297 223.572 59.0784 225.945 61.5571 227.94C64.0344 229.806 66.966 230.974 70.0473 231.323C72.9137 231.706 75.8902 231.766 78.6135 232.839C79.9994 233.409 81.2492 234.266 82.2808 235.353C83.3124 236.44 84.1026 237.733 84.5996 239.146C85.9296 242.637 85.9262 246.398 85.795 250.075C85.6494 254.158 85.4335 258.397 87.1286 262.221C87.334 262.684 86.6032 262.976 86.3981 262.513C83.4488 255.86 86.0837 248.454 84.5063 241.554C83.7702 238.334 82.0595 235.316 78.9803 233.855C76.2876 232.577 73.2184 232.513 70.3127 232.15C67.3019 231.854 64.4094 230.825 61.8879 229.152C59.3157 227.29 57.0791 225.004 55.2739 222.391C51.116 216.573 47.8986 210.138 45.7394 203.321C43.232 195.555 42.0715 187.417 42.3082 179.259C42.323 178.754 43.1012 178.873 43.0865 179.375L43.0865 179.375Z" fill="white"/>
<path d="M52.2862 217.128C50.0458 218.242 47.4824 218.523 45.0538 217.921C42.6253 217.32 40.4897 215.874 39.0284 213.843C38.7341 213.431 39.3605 212.954 39.6551 213.367C41.0124 215.261 43.0018 216.607 45.2644 217.163C47.5271 217.718 49.9138 217.447 51.9938 216.397C52.4461 216.17 52.7359 216.902 52.2862 217.128Z" fill="white"/>
<path d="M68.5684 231.32C70.2401 226.486 70.0286 221.199 67.9759 216.514C67.7722 216.05 68.503 215.758 68.7065 216.221C70.8334 221.101 71.0423 226.603 69.2916 231.63C69.1244 232.109 68.4021 231.796 68.5684 231.32Z" fill="white"/>
<path d="M44.2705 195.655C45.2272 195.405 46.1067 194.921 46.8301 194.246C47.5534 193.572 48.098 192.729 48.4149 191.792C48.5759 191.311 49.2981 191.624 49.1381 192.102C48.7832 193.135 48.1806 194.066 47.3831 194.813C46.5855 195.56 45.6172 196.1 44.5628 196.386C44.4657 196.421 44.3587 196.418 44.2637 196.377C44.1688 196.337 44.0928 196.261 44.0514 196.167C44.0131 196.07 44.0147 195.962 44.0558 195.866C44.0968 195.77 44.1739 195.694 44.2705 195.655H44.2705Z" fill="white"/>
<path d="M541.383 260.248C557.283 252.128 569.942 235.847 569.592 217.996C554.728 230.485 535.925 237.314 516.511 237.273C509.023 237.231 500.7 236.403 494.881 241.116C491.261 244.048 489.363 248.692 488.801 253.318C488.239 257.943 488.87 262.621 489.499 267.237L489.108 268.333C506.919 269.555 525.483 268.368 541.383 260.248Z" fill="#F0F0F0"/>
<path d="M569.22 217.952C562.217 230.966 551.292 241.442 537.996 247.892C535.159 249.331 532.112 250.314 528.969 250.804C525.891 251.183 522.768 250.731 519.924 249.495C517.249 248.395 514.641 246.96 511.745 246.53C510.26 246.332 508.749 246.45 507.313 246.877C505.876 247.303 504.546 248.029 503.409 249.005C500.514 251.366 498.64 254.625 496.917 257.877C495.005 261.487 493.075 265.267 489.697 267.734C489.288 268.033 489.776 268.65 490.184 268.352C496.061 264.061 497.476 256.328 502.288 251.138C504.534 248.716 507.523 246.956 510.92 247.228C513.891 247.465 516.582 248.942 519.281 250.079C522.037 251.326 525.057 251.879 528.077 251.689C531.235 251.361 534.315 250.497 537.183 249.134C543.69 246.171 549.691 242.202 554.965 237.374C561.016 231.898 566.084 225.426 569.953 218.24C570.192 217.795 569.458 217.51 569.22 217.952Z" fill="white"/>
<path d="M542.4 246.067C543.785 248.151 545.865 249.675 548.27 250.366C550.674 251.058 553.246 250.872 555.526 249.842C555.987 249.632 555.682 248.906 555.221 249.116C553.1 250.079 550.704 250.252 548.466 249.604C546.228 248.955 544.296 247.528 543.018 245.58C542.739 245.157 542.123 245.646 542.4 246.067Z" fill="white"/>
<path d="M521.207 250.231C522.172 245.208 524.995 240.733 529.113 237.699C529.521 237.399 529.034 236.781 528.626 237.081C524.347 240.246 521.419 244.909 520.426 250.138C520.331 250.637 521.113 250.727 521.207 250.231H521.207Z" fill="white"/>
<path d="M560.066 231.466C559.362 230.771 558.842 229.913 558.552 228.967C558.262 228.022 558.211 227.019 558.404 226.049C558.505 225.552 557.723 225.463 557.623 225.956C557.414 227.029 557.471 228.136 557.79 229.182C558.108 230.227 558.677 231.179 559.448 231.953C559.514 232.032 559.608 232.083 559.711 232.095C559.814 232.107 559.917 232.08 560 232.019C560.082 231.954 560.134 231.859 560.147 231.756C560.159 231.652 560.13 231.548 560.066 231.466H560.066Z" fill="white"/>
<path d="M522.268 180.387C522.196 180.696 522.125 181.004 522.047 181.315C521.062 185.459 519.743 189.516 518.101 193.446C517.979 193.752 517.851 194.06 517.72 194.362C513.665 203.788 507.895 212.38 500.703 219.699C497.839 222.609 494.757 225.297 491.485 227.74C486.966 231.113 481.798 234.41 478.747 238.946C478.423 239.415 478.129 239.904 477.866 240.41L487.802 267.771C487.856 267.822 487.904 267.875 487.958 267.927L488.305 269.037C488.482 268.923 488.664 268.801 488.841 268.687C488.945 268.621 489.046 268.549 489.149 268.483C489.217 268.437 489.285 268.391 489.349 268.354C489.372 268.339 489.395 268.323 489.411 268.31C489.475 268.273 489.531 268.231 489.589 268.196C490.606 267.516 491.621 266.827 492.632 266.13C492.638 266.127 492.638 266.127 492.643 266.119C500.401 260.88 507.51 254.74 513.822 247.826C514.008 247.618 514.199 247.407 514.38 247.185C517.144 244.042 519.646 240.677 521.862 237.126C523.069 235.177 524.177 233.169 525.18 231.109C527.764 225.779 529.494 220.077 530.305 214.211C531.922 202.515 529.781 190.433 522.808 181.095C522.629 180.856 522.453 180.623 522.268 180.387Z" fill="#F0F0F0"/>
<path d="M521.943 180.575C524.186 195.182 521.769 210.125 515.036 223.28C513.637 226.138 511.796 228.758 509.582 231.042C507.352 233.198 504.586 234.717 501.571 235.442C498.774 236.175 495.827 236.6 493.256 238C491.951 238.737 490.816 239.74 489.926 240.946C489.036 242.152 488.41 243.532 488.091 244.996C487.2 248.624 487.666 252.355 488.248 255.989C488.894 260.023 489.629 264.203 488.417 268.206C488.27 268.691 489.031 268.891 489.178 268.406C491.287 261.441 487.762 254.415 488.479 247.373C488.814 244.088 490.141 240.883 493.017 239.054C495.533 237.455 498.571 237.014 501.41 236.296C504.361 235.632 507.105 234.255 509.402 232.286C511.726 230.121 513.665 227.577 515.135 224.762C518.546 218.478 520.949 211.696 522.253 204.665C523.787 196.65 523.939 188.43 522.701 180.363C522.625 179.864 521.867 180.079 521.943 180.575Z" fill="white"/>
<path d="M517.453 219.172C519.814 220.002 522.392 219.966 524.728 219.07C527.065 218.175 529.006 216.478 530.207 214.282C530.448 213.837 529.768 213.441 529.526 213.887C528.412 215.933 526.603 217.514 524.426 218.343C522.249 219.173 519.847 219.197 517.654 218.411C517.177 218.241 516.979 219.003 517.453 219.172Z" fill="white"/>
<path d="M503.039 235.258C500.786 230.666 500.346 225.393 501.807 220.491C501.952 220.006 501.191 219.806 501.046 220.291C499.535 225.395 500.004 230.881 502.359 235.654C502.584 236.109 503.262 235.71 503.039 235.258Z" fill="white"/>
<path d="M522.769 196.877C521.789 196.746 520.856 196.374 520.056 195.793C519.255 195.213 518.611 194.443 518.181 193.552C517.962 193.095 517.284 193.494 517.502 193.949C517.981 194.931 518.693 195.78 519.576 196.423C520.46 197.066 521.487 197.483 522.569 197.638C522.669 197.661 522.775 197.645 522.864 197.593C522.954 197.541 523.02 197.456 523.049 197.357C523.075 197.256 523.06 197.149 523.008 197.059C522.955 196.969 522.87 196.904 522.769 196.877V196.877Z" fill="white"/>
<path d="M496.51 11.687H384.491V18.894C384.489 19.263 384.616 19.6211 384.85 19.9069C384.624 25.5401 384.491 32.7315 384.491 40.5462V233.227C384.491 251.287 385.216 265.982 386.104 265.982H494.898C495.786 265.982 496.511 251.287 496.511 233.227V40.5462C496.511 32.7315 496.378 25.5401 496.152 19.9069C496.386 19.6211 496.512 19.263 496.511 18.894L496.51 11.687Z" fill="white"/>
<path d="M494.898 266.761H386.104C385.256 266.761 384.696 266.761 384.186 256.415C383.881 250.207 383.712 241.972 383.712 233.227V40.5464C383.712 32.9935 383.84 25.6526 384.071 19.8756C384.216 16.4072 384.382 13.6289 384.565 11.6167C384.923 7.67765 385.263 7.01227 386.104 7.01227H494.898C495.739 7.01227 496.079 7.67765 496.437 11.6167C496.62 13.6365 496.786 16.4148 496.93 19.8741L496.931 19.8756C497.162 25.6465 497.29 32.9875 497.29 40.5464V233.227C497.29 241.972 497.121 250.207 496.815 256.415C496.306 266.761 495.746 266.761 494.898 266.761ZM386.547 265.203H494.455C495.019 263.074 495.731 251.513 495.731 233.227V40.5464C495.731 33.008 495.604 25.6899 495.374 19.9396H495.374C495.23 16.505 495.066 13.7521 494.886 11.7575C494.816 10.6861 494.67 9.62105 494.448 8.57054H386.554C386.332 9.62106 386.186 10.6861 386.116 11.7575C385.936 13.7445 385.772 16.4974 385.628 19.9396C385.397 25.6948 385.27 33.0137 385.27 40.5464V233.227C385.27 251.513 385.983 263.073 386.547 265.203Z" fill="#E4E4E4"/>
<path d="M494.898 7.79126H386.104C385.677 7.79209 385.267 7.96226 384.965 8.26454C384.662 8.56681 384.492 8.97657 384.491 9.40408V18.894C384.489 19.263 384.616 19.6211 384.85 19.9069C385.001 20.0937 385.192 20.2445 385.409 20.3482C385.626 20.452 385.864 20.5062 386.104 20.5068H494.898C495.138 20.5061 495.376 20.4519 495.593 20.3481C495.81 20.2444 496.001 20.0937 496.152 19.9069C496.386 19.6211 496.512 19.263 496.511 18.894V9.40408C496.51 8.9766 496.34 8.56686 496.037 8.26457C495.735 7.96229 495.325 7.79209 494.898 7.79126Z" fill="#080966"/>
<path d="M393.855 15.9762C395.12 15.9762 396.145 14.9508 396.145 13.6858C396.145 12.4209 395.12 11.3954 393.855 11.3954C392.59 11.3954 391.565 12.4209 391.565 13.6858C391.565 14.9508 392.59 15.9762 393.855 15.9762Z" fill="white"/>
<path d="M402.548 15.9762C403.812 15.9762 404.838 14.9508 404.838 13.6858C404.838 12.4209 403.812 11.3954 402.548 11.3954C401.283 11.3954 400.258 12.4209 400.258 13.6858C400.258 14.9508 401.283 15.9762 402.548 15.9762Z" fill="white"/>
<path d="M411.241 15.9762C412.505 15.9762 413.531 14.9508 413.531 13.6858C413.531 12.4209 412.505 11.3954 411.241 11.3954C409.976 11.3954 408.95 12.4209 408.95 13.6858C408.95 14.9508 409.976 15.9762 411.241 15.9762Z" fill="white"/>
<path d="M486.383 10.6274H476.372C476.176 10.6287 475.989 10.7071 475.85 10.8456C475.712 10.9842 475.633 11.1717 475.632 11.3676C475.629 11.4791 475.656 11.5894 475.71 11.687C475.769 11.8125 475.863 11.9186 475.98 11.993C476.097 12.0675 476.233 12.1073 476.372 12.1077H486.383C486.523 12.1084 486.66 12.0692 486.779 11.9947C486.898 11.9202 486.993 11.8135 487.053 11.687C487.101 11.5874 487.125 11.478 487.123 11.3676C487.123 11.2703 487.104 11.174 487.067 11.0842C487.03 10.9944 486.975 10.9128 486.906 10.844C486.838 10.7753 486.756 10.7208 486.666 10.6836C486.576 10.6464 486.48 10.6273 486.383 10.6274Z" fill="white"/>
<path d="M486.383 13.4089H476.372C476.176 13.4089 475.987 13.4869 475.849 13.6257C475.71 13.7645 475.632 13.9528 475.632 14.1491C475.632 14.3454 475.71 14.5337 475.849 14.6725C475.987 14.8113 476.176 14.8893 476.372 14.8893H486.383C486.579 14.8893 486.767 14.8113 486.906 14.6725C487.045 14.5337 487.123 14.3454 487.123 14.1491C487.123 13.9528 487.045 13.7645 486.906 13.6257C486.767 13.4869 486.579 13.4089 486.383 13.4089Z" fill="white"/>
<path d="M486.383 16.1904H476.372C476.176 16.1904 475.987 16.2684 475.849 16.4072C475.71 16.546 475.632 16.7343 475.632 16.9306C475.632 17.1269 475.71 17.3152 475.849 17.454C475.987 17.5928 476.176 17.6708 476.372 17.6708H486.383C486.579 17.6708 486.767 17.5928 486.906 17.454C487.045 17.3152 487.123 17.1269 487.123 16.9306C487.123 16.7343 487.045 16.546 486.906 16.4072C486.767 16.2684 486.579 16.1904 486.383 16.1904Z" fill="white"/>
<path d="M451.326 41.3098H430.728C429.695 41.3102 428.704 41.7208 427.974 42.4513C427.243 43.1818 426.833 44.1724 426.832 45.2055V63.0478C426.834 64.0804 427.245 65.0703 427.975 65.8005C428.705 66.5307 429.695 66.9417 430.728 66.9435H451.326C452.358 66.9404 453.347 66.529 454.077 65.7991C454.806 65.0692 455.218 64.08 455.221 63.0478V45.2055C455.219 44.1728 454.808 43.1829 454.078 42.4527C453.348 41.7225 452.358 41.3115 451.326 41.3098Z" fill="#E053CC"/>
<path d="M476.918 78.5993H405.128C404.659 78.5993 404.209 78.7856 403.878 79.1173C403.546 79.449 403.36 79.8989 403.36 80.3679C403.36 80.837 403.546 81.2869 403.878 81.6186C404.209 81.9502 404.659 82.1366 405.128 82.1366H476.918C477.387 82.1366 477.836 81.9502 478.168 81.6186C478.5 81.2869 478.686 80.837 478.686 80.3679C478.686 79.8989 478.5 79.449 478.168 79.1173C477.836 78.7856 477.387 78.5993 476.918 78.5993Z" fill="#E4E4E4"/>
<path d="M432.395 86.8894H405.128C404.659 86.8894 404.209 87.0758 403.878 87.4074C403.546 87.7391 403.36 88.189 403.36 88.6581C403.36 89.1271 403.546 89.577 403.878 89.9087C404.209 90.2404 404.659 90.4267 405.128 90.4267H432.395C432.864 90.4267 433.314 90.2404 433.645 89.9087C433.977 89.577 434.163 89.1271 434.163 88.6581C434.163 88.189 433.977 87.7391 433.645 87.4074C433.314 87.0758 432.864 86.8894 432.395 86.8894Z" fill="#E4E4E4"/>
<path d="M451.326 118.444H430.728C429.695 118.445 428.704 118.855 427.974 119.586C427.243 120.316 426.833 121.307 426.832 122.34V140.182C426.834 141.215 427.245 142.205 427.975 142.935C428.705 143.665 429.695 144.076 430.728 144.078H451.326C452.358 144.075 453.347 143.664 454.077 142.934C454.806 142.204 455.218 141.215 455.221 140.182V122.34C455.219 121.307 454.808 120.318 454.078 119.587C453.348 118.857 452.358 118.446 451.326 118.444Z" fill="#E053CC"/>
<path d="M476.918 155.734H405.128C404.659 155.734 404.209 155.92 403.878 156.252C403.546 156.584 403.36 157.034 403.36 157.503C403.36 157.972 403.546 158.422 403.878 158.753C404.209 159.085 404.659 159.271 405.128 159.271H476.918C477.387 159.271 477.836 159.085 478.168 158.753C478.5 158.422 478.686 157.972 478.686 157.503C478.686 157.034 478.5 156.584 478.168 156.252C477.836 155.92 477.387 155.734 476.918 155.734Z" fill="#E4E4E4"/>
<path d="M432.395 164.024H405.128C404.659 164.024 404.209 164.21 403.878 164.542C403.546 164.874 403.36 165.324 403.36 165.793C403.36 166.262 403.546 166.712 403.878 167.043C404.209 167.375 404.659 167.561 405.128 167.561H432.395C432.864 167.561 433.314 167.375 433.645 167.043C433.977 166.712 434.163 166.262 434.163 165.793C434.163 165.324 433.977 164.874 433.645 164.542C433.314 164.21 432.864 164.024 432.395 164.024Z" fill="#E4E4E4"/>
<path d="M451.326 195.579H430.728C429.695 195.58 428.704 195.99 427.974 196.721C427.243 197.451 426.833 198.442 426.832 199.475V217.317C426.834 218.35 427.245 219.34 427.975 220.07C428.705 220.8 429.695 221.211 430.728 221.213H451.326C452.358 221.21 453.347 220.798 454.077 220.068C454.806 219.338 455.218 218.349 455.221 217.317V199.475C455.219 198.442 454.808 197.452 454.078 196.722C453.348 195.992 452.358 195.581 451.326 195.579Z" fill="#E053CC"/>
<path d="M476.918 232.869H405.128C404.659 232.869 404.209 233.055 403.878 233.387C403.546 233.718 403.36 234.168 403.36 234.637C403.36 235.106 403.546 235.556 403.878 235.888C404.209 236.219 404.659 236.406 405.128 236.406H476.918C477.387 236.406 477.836 236.219 478.168 235.888C478.5 235.556 478.686 235.106 478.686 234.637C478.686 234.168 478.5 233.718 478.168 233.387C477.836 233.055 477.387 232.869 476.918 232.869Z" fill="#E4E4E4"/>
<path d="M432.395 241.159H405.128C404.659 241.159 404.209 241.345 403.878 241.677C403.546 242.008 403.36 242.458 403.36 242.927C403.36 243.396 403.546 243.846 403.878 244.178C404.209 244.51 404.659 244.696 405.128 244.696H432.395C432.864 244.696 433.314 244.51 433.645 244.178C433.977 243.846 434.163 243.396 434.163 242.927C434.163 242.458 433.977 242.008 433.645 241.677C433.314 241.345 432.864 241.159 432.395 241.159Z" fill="#E4E4E4"/>
<path d="M353.945 2.39187C353.944 1.9644 353.774 1.55466 353.471 1.25238C353.169 0.950094 352.759 0.779893 352.332 0.779053H64.3568C63.9293 0.779878 63.5196 0.950054 63.2173 1.25233C62.915 1.55461 62.7448 1.96436 62.7439 2.39187V11.8818C62.7425 12.2769 62.89 12.658 63.157 12.9492C62.8999 19.3927 62.7439 27.8853 62.7439 37.1882V251.381C62.7439 271.467 63.4686 287.798 64.3568 287.798H352.332C353.22 287.798 353.945 271.467 353.945 251.381V37.1882C353.945 27.8853 353.789 19.3927 353.532 12.9492C353.799 12.6579 353.946 12.2768 353.945 11.8818V2.39187Z" fill="white"/>
<path d="M352.332 288.577H64.3568C63.4764 288.577 62.945 288.577 62.4389 277.156C62.1332 270.257 61.9648 261.103 61.9648 251.381V37.1882C61.9648 28.2224 62.1118 19.6032 62.3786 12.9181C62.8907 -5.06325e-05 63.474 -6.10352e-05 64.3568 -6.10352e-05H352.332C353.215 -6.10352e-05 353.798 0.002232 354.31 12.9181C354.577 19.5971 354.724 28.2163 354.724 37.1882V251.381C354.724 261.104 354.555 270.257 354.25 277.156C353.744 288.577 353.212 288.577 352.332 288.577ZM64.8115 287.019H351.877C352.515 284.576 353.165 270.859 353.165 251.381V37.1882C353.165 28.2365 353.019 19.6389 352.753 12.9805V12.9801C352.429 4.79652 352.05 2.30616 351.869 1.55821H64.82C64.6388 2.30619 64.26 4.79652 63.9354 12.9801C63.6694 19.6454 63.5229 28.2425 63.5229 37.1882V251.381C63.5229 270.859 64.1739 284.575 64.8115 287.019Z" fill="#E4E4E4"/>
<path d="M352.332 0.779053H64.3568C63.9293 0.779878 63.5196 0.950054 63.2173 1.25233C62.915 1.55461 62.7448 1.96436 62.7439 2.39187V11.8818C62.7425 12.2769 62.89 12.658 63.157 12.9492C63.3067 13.1202 63.4912 13.2573 63.6981 13.3513C63.9049 13.4454 64.1295 13.4942 64.3568 13.4946H352.332C352.559 13.4942 352.784 13.4454 352.991 13.3513C353.198 13.2573 353.382 13.1202 353.532 12.9492C353.799 12.6579 353.946 12.2768 353.944 11.8818V2.39187C353.944 1.96441 353.773 1.55468 353.471 1.2524C353.169 0.950119 352.759 0.779909 352.332 0.779053Z" fill="#080966"/>
<path d="M72.108 8.96398C73.3728 8.96398 74.3981 7.93854 74.3981 6.67361C74.3981 5.40867 73.3728 4.38324 72.108 4.38324C70.8432 4.38324 69.8179 5.40867 69.8179 6.67361C69.8179 7.93854 70.8432 8.96398 72.108 8.96398Z" fill="white"/>
<path d="M80.8005 8.96398C82.0653 8.96398 83.0906 7.93854 83.0906 6.67361C83.0906 5.40867 82.0653 4.38324 80.8005 4.38324C79.5357 4.38324 78.5104 5.40867 78.5104 6.67361C78.5104 7.93854 79.5357 8.96398 80.8005 8.96398Z" fill="white"/>
<path d="M89.4934 8.96398C90.7581 8.96398 91.7835 7.93854 91.7835 6.67361C91.7835 5.40867 90.7581 4.38324 89.4934 4.38324C88.2286 4.38324 87.2032 5.40867 87.2032 6.67361C87.2032 7.93854 88.2286 8.96398 89.4934 8.96398Z" fill="white"/>
<path d="M343.817 3.61517H333.806C333.61 3.61517 333.421 3.69315 333.283 3.83196C333.144 3.97077 333.066 4.15904 333.066 4.35535C333.066 4.55166 333.144 4.73993 333.283 4.87874C333.421 5.01755 333.61 5.09554 333.806 5.09554H343.817C344.013 5.09554 344.201 5.01755 344.34 4.87874C344.479 4.73993 344.557 4.55166 344.557 4.35535C344.557 4.15904 344.479 3.97077 344.34 3.83196C344.201 3.69315 344.013 3.61517 343.817 3.61517Z" fill="white"/>
<path d="M343.817 6.39667H333.806C333.61 6.39667 333.421 6.47465 333.283 6.61346C333.144 6.75227 333.066 6.94054 333.066 7.13685C333.066 7.33315 333.144 7.52142 333.283 7.66023C333.421 7.79905 333.61 7.87702 333.806 7.87702H343.817C344.013 7.87702 344.201 7.79905 344.34 7.66023C344.479 7.52142 344.557 7.33315 344.557 7.13685C344.557 6.94054 344.479 6.75227 344.34 6.61346C344.201 6.47465 344.013 6.39667 343.817 6.39667Z" fill="white"/>
<path d="M343.817 9.17822H333.806C333.61 9.17822 333.421 9.25621 333.283 9.39502C333.144 9.53384 333.066 9.72209 333.066 9.9184C333.066 10.1147 333.144 10.303 333.283 10.4418C333.421 10.5806 333.61 10.6586 333.806 10.6586H343.817C344.013 10.6586 344.201 10.5806 344.34 10.4418C344.479 10.303 344.557 10.1147 344.557 9.9184C344.557 9.72209 344.479 9.53384 344.34 9.39502C344.201 9.25621 344.013 9.17822 343.817 9.17822Z" fill="white"/>
<path d="M157.438 48.3221H123.736C122.046 48.3242 120.427 48.9963 119.232 50.1911C118.037 51.3859 117.365 53.0058 117.363 54.6954V83.8897C117.365 85.5794 118.037 87.1993 119.232 88.3941C120.427 89.5888 122.046 90.261 123.736 90.2631H157.438C159.127 90.261 160.747 89.5888 161.941 88.3941C163.136 87.1993 163.808 85.5794 163.81 83.8897V54.6954C163.808 53.0058 163.136 51.3859 161.941 50.1911C160.747 48.9963 159.127 48.3242 157.438 48.3221Z" fill="#E053CC"/>
<path d="M296.443 59.6118H178.978C178.211 59.6118 177.474 59.9167 176.932 60.4595C176.389 61.0024 176.084 61.7386 176.084 62.5062C176.084 63.2739 176.389 64.0101 176.932 64.553C177.474 65.0958 178.211 65.4007 178.978 65.4007H296.443C297.211 65.4007 297.947 65.0958 298.489 64.553C299.032 64.0101 299.337 63.2739 299.337 62.5062C299.337 61.7386 299.032 61.0024 298.489 60.4595C297.947 59.9167 297.211 59.6118 296.443 59.6118Z" fill="#E4E4E4"/>
<path d="M223.594 73.1765H178.978C178.211 73.1765 177.474 73.4815 176.932 74.0243C176.389 74.5671 176.084 75.3033 176.084 76.071C176.084 76.8387 176.389 77.5749 176.932 78.1177C177.474 78.6605 178.211 78.9655 178.978 78.9655H223.594C224.362 78.9655 225.098 78.6605 225.641 78.1177C226.183 77.5749 226.488 76.8387 226.488 76.071C226.488 75.3033 226.183 74.5671 225.641 74.0243C225.098 73.4815 224.362 73.1765 223.594 73.1765Z" fill="#E4E4E4"/>
<path d="M157.438 126.236H123.736C122.046 126.238 120.427 126.91 119.232 128.105C118.037 129.3 117.365 130.92 117.363 132.609V161.804C117.365 163.493 118.037 165.113 119.232 166.308C120.427 167.503 122.046 168.175 123.736 168.177H157.438C159.127 168.175 160.747 167.503 161.941 166.308C163.136 165.113 163.808 163.493 163.81 161.804V132.609C163.808 130.92 163.136 129.3 161.941 128.105C160.747 126.91 159.127 126.238 157.438 126.236Z" fill="#E053CC"/>
<path d="M296.443 137.526H178.978C178.211 137.526 177.474 137.83 176.932 138.373C176.389 138.916 176.084 139.652 176.084 140.42C176.084 141.188 176.389 141.924 176.932 142.467C177.474 143.01 178.211 143.315 178.978 143.315H296.443C297.211 143.315 297.947 143.01 298.489 142.467C299.032 141.924 299.337 141.188 299.337 140.42C299.337 139.652 299.032 138.916 298.489 138.373C297.947 137.83 297.211 137.526 296.443 137.526Z" fill="#E4E4E4"/>
<path d="M223.594 151.09H178.978C178.211 151.09 177.474 151.395 176.932 151.938C176.389 152.481 176.084 153.217 176.084 153.985C176.084 154.752 176.389 155.489 176.932 156.031C177.474 156.574 178.211 156.879 178.978 156.879H223.594C224.362 156.879 225.098 156.574 225.641 156.031C226.183 155.489 226.488 154.752 226.488 153.985C226.488 153.217 226.183 152.481 225.641 151.938C225.098 151.395 224.362 151.09 223.594 151.09Z" fill="#E4E4E4"/>
<path d="M157.438 204.15H123.736C122.046 204.152 120.427 204.824 119.232 206.019C118.037 207.213 117.365 208.833 117.363 210.523V239.717C117.365 241.407 118.037 243.027 119.232 244.222C120.427 245.416 122.046 246.088 123.736 246.091H157.438C159.127 246.088 160.747 245.416 161.941 244.222C163.136 243.027 163.808 241.407 163.81 239.717V210.523C163.808 208.833 163.136 207.213 161.941 206.019C160.747 204.824 159.127 204.152 157.438 204.15Z" fill="#E053CC"/>
<path d="M296.443 215.439H178.978C178.211 215.439 177.474 215.744 176.932 216.287C176.389 216.83 176.084 217.566 176.084 218.334C176.084 219.101 176.389 219.838 176.932 220.381C177.474 220.923 178.211 221.228 178.978 221.228H296.443C297.211 221.228 297.947 220.923 298.489 220.381C299.032 219.838 299.337 219.101 299.337 218.334C299.337 217.566 299.032 216.83 298.489 216.287C297.947 215.744 297.211 215.439 296.443 215.439Z" fill="#E4E4E4"/>
<path d="M223.594 229.004H178.978C178.211 229.004 177.474 229.309 176.932 229.852C176.389 230.395 176.084 231.131 176.084 231.899C176.084 232.666 176.389 233.402 176.932 233.945C177.474 234.488 178.211 234.793 178.978 234.793H223.594C224.362 234.793 225.098 234.488 225.641 233.945C226.183 233.402 226.488 232.666 226.488 231.899C226.488 231.131 226.183 230.395 225.641 229.852C225.098 229.309 224.362 229.004 223.594 229.004Z" fill="#E4E4E4"/>
<path d="M403.752 339.221H210.821C209.932 339.221 209.208 325.547 209.208 308.738V129.432C209.208 112.623 209.932 98.9498 210.821 98.9498H403.752C404.641 98.9498 405.365 112.623 405.365 129.432V308.738C405.365 325.547 404.641 339.221 403.752 339.221Z" fill="white"/>
<path d="M403.752 340H210.821C210.005 340 209.415 340 208.903 330.324C208.597 324.547 208.429 316.881 208.429 308.738V129.432C208.429 121.29 208.597 113.624 208.903 107.847C209.415 98.1706 210.005 98.1706 210.821 98.1706H403.752C404.568 98.1706 405.158 98.1706 405.67 107.847C405.975 113.624 406.144 121.29 406.144 129.432V308.738C406.144 316.881 405.975 324.547 405.67 330.324C405.158 340 404.568 340 403.752 340ZM211.252 338.442H403.32C403.88 336.423 404.586 325.669 404.586 308.738V129.432C404.586 112.502 403.88 101.747 403.32 99.7289H211.252C210.693 101.747 209.987 112.502 209.987 129.432V308.738C209.987 325.669 210.693 336.423 211.252 338.442Z" fill="#E4E4E4"/>
<path d="M403.752 111.666H210.821C210.393 111.665 209.983 111.495 209.681 111.193C209.379 110.89 209.208 110.48 209.208 110.052V100.563C209.208 100.135 209.379 99.7253 209.681 99.4229C209.983 99.1204 210.393 98.9503 210.821 98.9498H403.752C404.179 98.9503 404.589 99.1204 404.892 99.4229C405.194 99.7253 405.364 100.135 405.365 100.563V110.052C405.364 110.48 405.194 110.89 404.892 111.193C404.589 111.495 404.179 111.665 403.752 111.666Z" fill="#080966"/>
<path d="M218.569 107.135C219.834 107.135 220.859 106.11 220.859 104.845C220.859 103.58 219.834 102.555 218.569 102.555C217.304 102.555 216.279 103.58 216.279 104.845C216.279 106.11 217.304 107.135 218.569 107.135Z" fill="white"/>
<path d="M227.262 107.135C228.526 107.135 229.552 106.11 229.552 104.845C229.552 103.58 228.526 102.555 227.262 102.555C225.997 102.555 224.972 103.58 224.972 104.845C224.972 106.11 225.997 107.135 227.262 107.135Z" fill="white"/>
<path d="M235.955 107.135C237.219 107.135 238.245 106.11 238.245 104.845C238.245 103.58 237.219 102.555 235.955 102.555C234.69 102.555 233.664 103.58 233.664 104.845C233.664 106.11 234.69 107.135 235.955 107.135Z" fill="white"/>
<path d="M395.235 103.268H385.225C385.028 103.268 384.84 103.19 384.701 103.051C384.562 102.912 384.484 102.724 384.484 102.527C384.484 102.33 384.562 102.142 384.701 102.003C384.84 101.864 385.028 101.785 385.225 101.785H395.235C395.431 101.786 395.619 101.864 395.757 102.003C395.896 102.142 395.974 102.331 395.974 102.527C395.974 102.723 395.896 102.911 395.757 103.05C395.619 103.189 395.431 103.268 395.235 103.268Z" fill="white"/>
<path d="M395.235 106.049H385.225C385.028 106.049 384.84 105.971 384.701 105.832C384.562 105.693 384.484 105.504 384.484 105.308C384.484 105.111 384.562 104.922 384.701 104.783C384.84 104.644 385.028 104.566 385.225 104.566H395.235C395.431 104.566 395.62 104.644 395.759 104.783C395.898 104.922 395.976 105.111 395.976 105.308C395.976 105.504 395.898 105.693 395.759 105.832C395.62 105.971 395.431 106.049 395.235 106.049Z" fill="white"/>
<path d="M395.235 108.83H385.225C385.028 108.83 384.84 108.752 384.701 108.613C384.562 108.474 384.484 108.285 384.484 108.089C384.484 107.892 384.562 107.703 384.701 107.564C384.84 107.425 385.028 107.347 385.225 107.347H395.235C395.431 107.348 395.619 107.426 395.757 107.565C395.896 107.704 395.974 107.892 395.974 108.089C395.974 108.285 395.896 108.473 395.757 108.612C395.619 108.751 395.431 108.83 395.235 108.83Z" fill="white"/>
<path d="M270.106 170.566H245.494C244.26 170.565 243.077 170.074 242.204 169.201C241.332 168.328 240.841 167.145 240.839 165.911V144.591C240.841 143.357 241.332 142.174 242.204 141.301C243.077 140.429 244.26 139.938 245.494 139.936H270.106C271.34 139.938 272.524 140.429 273.396 141.301C274.269 142.174 274.76 143.357 274.761 144.591V165.911C274.76 167.145 274.269 168.328 273.396 169.201C272.524 170.074 271.34 170.565 270.106 170.566Z" fill="#E053CC"/>
<path d="M371.62 152.412H285.839C285.278 152.412 284.741 152.189 284.344 151.793C283.948 151.396 283.726 150.859 283.726 150.298C283.726 149.738 283.948 149.2 284.344 148.804C284.741 148.408 285.278 148.185 285.839 148.185H371.62C372.181 148.185 372.718 148.408 373.114 148.804C373.511 149.2 373.733 149.738 373.733 150.298C373.733 150.859 373.511 151.396 373.114 151.793C372.718 152.189 372.181 152.412 371.62 152.412Z" fill="#E4E4E4"/>
<path d="M318.42 162.318H285.839C285.278 162.318 284.741 162.095 284.344 161.699C283.948 161.302 283.726 160.765 283.726 160.204C283.726 159.644 283.948 159.106 284.344 158.71C284.741 158.313 285.278 158.091 285.839 158.091H318.42C318.698 158.09 318.973 158.145 319.23 158.251C319.487 158.357 319.72 158.512 319.917 158.708C320.113 158.905 320.269 159.138 320.376 159.395C320.482 159.651 320.537 159.926 320.537 160.204C320.537 160.482 320.482 160.757 320.376 161.014C320.269 161.271 320.113 161.504 319.917 161.7C319.72 161.896 319.487 162.052 319.23 162.158C318.973 162.264 318.698 162.318 318.42 162.318Z" fill="#E4E4E4"/>
<path d="M270.106 233.676H245.494C244.26 233.675 243.077 233.184 242.204 232.311C241.332 231.439 240.841 230.255 240.839 229.021V207.702C240.841 206.467 241.332 205.284 242.204 204.411C243.077 203.539 244.26 203.048 245.494 203.047H270.106C271.34 203.048 272.524 203.539 273.396 204.411C274.269 205.284 274.76 206.467 274.761 207.702V229.021C274.76 230.255 274.269 231.439 273.396 232.311C272.524 233.184 271.34 233.675 270.106 233.676Z" fill="#E053CC"/>
<path d="M371.62 215.522H285.839C285.278 215.522 284.741 215.299 284.344 214.903C283.948 214.506 283.726 213.969 283.726 213.408C283.726 212.848 283.948 212.31 284.344 211.914C284.741 211.518 285.278 211.295 285.839 211.295H371.62C372.181 211.295 372.718 211.518 373.114 211.914C373.511 212.31 373.733 212.848 373.733 213.408C373.733 213.969 373.511 214.506 373.114 214.903C372.718 215.299 372.181 215.522 371.62 215.522Z" fill="#E4E4E4"/>
<path d="M318.42 225.428H285.839C285.278 225.428 284.741 225.205 284.344 224.809C283.948 224.412 283.726 223.875 283.726 223.314C283.726 222.754 283.948 222.216 284.344 221.82C284.741 221.424 285.278 221.201 285.839 221.201H318.42C318.698 221.201 318.973 221.255 319.23 221.361C319.487 221.467 319.72 221.622 319.917 221.819C320.113 222.015 320.269 222.248 320.376 222.505C320.482 222.761 320.537 223.037 320.537 223.314C320.537 223.592 320.482 223.867 320.376 224.124C320.269 224.381 320.113 224.614 319.917 224.81C319.72 225.007 319.487 225.162 319.23 225.268C318.973 225.374 318.698 225.428 318.42 225.428Z" fill="#E4E4E4"/>
<path d="M270.106 296.786H245.494C244.26 296.785 243.077 296.294 242.204 295.421C241.332 294.549 240.841 293.366 240.839 292.131V270.812C240.841 269.578 241.332 268.394 242.204 267.522C243.077 266.649 244.26 266.158 245.494 266.157H270.106C271.34 266.158 272.524 266.649 273.396 267.522C274.269 268.394 274.76 269.578 274.761 270.812V292.131C274.76 293.366 274.269 294.549 273.396 295.421C272.524 296.294 271.34 296.785 270.106 296.786Z" fill="#E053CC"/>
<path d="M371.62 278.632H285.839C285.278 278.632 284.741 278.409 284.344 278.013C283.948 277.617 283.726 277.079 283.726 276.519C283.726 275.958 283.948 275.421 284.344 275.024C284.741 274.628 285.278 274.405 285.839 274.405H371.62C372.181 274.405 372.718 274.628 373.114 275.024C373.511 275.421 373.733 275.958 373.733 276.519C373.733 277.079 373.511 277.617 373.114 278.013C372.718 278.409 372.181 278.632 371.62 278.632Z" fill="#E4E4E4"/>
<path d="M318.42 288.538H285.839C285.278 288.538 284.741 288.315 284.344 287.919C283.948 287.523 283.726 286.985 283.726 286.425C283.726 285.864 283.948 285.326 284.344 284.93C284.741 284.534 285.278 284.311 285.839 284.311H318.42C318.698 284.311 318.973 284.365 319.23 284.471C319.487 284.577 319.72 284.732 319.917 284.929C320.113 285.125 320.269 285.358 320.376 285.615C320.482 285.871 320.537 286.147 320.537 286.425C320.537 286.702 320.482 286.978 320.376 287.234C320.269 287.491 320.113 287.724 319.917 287.92C319.72 288.117 319.487 288.272 319.23 288.378C318.973 288.484 318.698 288.538 318.42 288.538Z" fill="#E4E4E4"/>
</g>
<defs>
<clipPath id="clip0_818_318">
<rect width="570" height="340" fill="white"/>
</clipPath>
</defs>
</svg>
