<svg width="46" height="48" viewBox="0 0 46 48" fill="none" xmlns="http://www.w3.org/2000/svg">
<path fill-rule="evenodd" clip-rule="evenodd" d="M5.75 29.692H9.58333V12.2985H36.4167V14.2311H40.25V12.2985C40.25 10.1638 38.5338 8.43323 36.4167 8.43323H9.58333C7.46624 8.43323 5.75 10.1638 5.75 12.2985V29.692ZM40.25 14.2311H30.6667C28.5496 14.2311 26.8333 15.9616 26.8333 18.0963L26.8333 29.692H1.91667V35.4899C1.91667 37.6246 3.63291 39.3551 5.75 39.3551H30.66L30.6667 39.3551H40.25C42.3671 39.3551 44.0833 37.6246 44.0833 35.4899V18.0963C44.0833 15.9616 42.3671 14.2311 40.25 14.2311ZM5.75 33.5573H26.8333L26.8333 35.4899L5.75 35.4899V33.5573ZM30.6667 35.4899L30.6667 35.4899L30.6667 18.0963H40.25V35.4899H30.6667Z" fill="white"/>
</svg>
