<svg width="32" height="32" viewBox="0 0 32 32" fill="none" xmlns="http://www.w3.org/2000/svg">
<g clip-path="url(#clip0)">
<path d="M27.3113 4.68834C21.0601 -1.56293 10.9411 -1.56393 4.68897 4.68834C-1.56236 10.9396 -1.5633 21.0585 4.68897 27.3107C10.9401 33.562 21.0591 33.5629 27.3113 27.3107C33.5626 21.0594 33.5635 10.9405 27.3113 4.68834ZM26.6427 25.0304C25.8953 24.3621 25.0958 23.7706 24.2531 23.2609C24.8101 21.3369 25.1401 19.2197 25.2181 17.0189H29.9211C29.7084 19.9854 28.5686 22.7682 26.6427 25.0304ZM2.0791 17.0189H6.78208C6.86008 19.2197 7.19006 21.3369 7.74704 23.2609C6.90435 23.7706 6.10488 24.3621 5.35749 25.0304C3.43156 22.7682 2.29181 19.9854 2.0791 17.0189ZM5.35755 6.9686C6.10494 7.63693 6.90441 8.22839 7.7471 8.7381C7.19012 10.6621 6.86014 12.7793 6.78214 14.9801H2.0791C2.29181 12.0137 3.43156 9.23088 5.35755 6.9686ZM14.9808 8.9488C13.3182 8.8299 11.7152 8.42042 10.2291 7.74491C11.0934 5.51929 12.6868 2.8499 14.9808 2.18838V8.9488ZM14.9808 10.9914V14.9802H8.82172C8.89229 13.1185 9.15608 11.3307 9.59478 9.695C11.2836 10.4333 13.0999 10.8742 14.9808 10.9914ZM14.9808 17.0189V21.0077C13.0999 21.1249 11.2836 21.5658 9.59478 22.3041C9.15608 20.6684 8.89229 18.8806 8.82172 17.0189H14.9808ZM14.9808 23.0503V29.8106C12.6869 29.1491 11.0936 26.48 10.2291 24.2542C11.7152 23.5787 13.3182 23.1692 14.9808 23.0503ZM17.0195 23.0503C18.682 23.1692 20.285 23.5787 21.7711 24.2542C20.9067 26.4799 19.3135 29.1491 17.0195 29.8106V23.0503ZM17.0195 21.0077V17.0189H23.1785C23.1079 18.8806 22.8442 20.6684 22.4054 22.3041C20.7166 21.5658 18.9004 21.1249 17.0195 21.0077ZM17.0195 14.9802V10.9914C18.9004 10.8742 20.7166 10.4333 22.4054 9.695C22.8442 11.3307 23.1079 13.1185 23.1785 14.9802H17.0195ZM17.0195 8.9488V2.18844C19.3135 2.84997 20.9068 5.51935 21.7711 7.74497C20.285 8.42042 18.682 8.8299 17.0195 8.9488ZM21.5982 3.20617C22.9031 3.77758 24.1205 4.55239 25.2118 5.51373C24.6923 5.97173 24.1442 6.38702 23.5719 6.7584C23.0636 5.49993 22.4143 4.27693 21.5982 3.20617ZM8.4283 6.7584C7.85595 6.38702 7.3079 5.97173 6.78838 5.51373C7.87968 4.55239 9.09706 3.77758 10.4019 3.20617C9.58585 4.27705 8.93657 5.50005 8.4283 6.7584ZM8.42836 25.2407C8.93657 26.4991 9.58598 27.7222 10.402 28.7929C9.09713 28.2215 7.87974 27.4467 6.78845 26.4854C7.3079 26.0274 7.85601 25.6121 8.42836 25.2407ZM23.5719 25.2407C24.1442 25.6121 24.6923 26.0274 25.2118 26.4853C24.1205 27.4466 22.9031 28.2214 21.5982 28.7928C22.4143 27.7222 23.0636 26.4992 23.5719 25.2407ZM25.2182 14.9802C25.1402 12.7794 24.8102 10.6621 24.2532 8.73816C25.0959 8.22845 25.8953 7.63699 26.6427 6.96867C28.5687 9.23088 29.7084 12.0137 29.9211 14.9802H25.2182Z" fill="white"/>
</g>
<defs>
<clipPath id="clip0">
<rect width="32" height="32" fill="white"/>
</clipPath>
</defs>
</svg>
