<svg width="24" height="25" viewBox="0 0 24 25" fill="none" xmlns="http://www.w3.org/2000/svg">
<path fill-rule="evenodd" clip-rule="evenodd" d="M20.1818 3.74899H3.81818C2.81403 3.74899 2 4.64442 2 5.74899V7.74899C2 8.85356 2.81403 9.74899 3.81818 9.74899H20.1818C21.186 9.74899 22 8.85356 22 7.74899V5.74899C22 4.64442 21.186 3.74899 20.1818 3.74899ZM3.81818 11.749H20.1818C21.186 11.749 22 12.6444 22 13.749V15.749C22 16.8536 21.186 17.749 20.1818 17.749H3.81818C2.81403 17.749 2 16.8536 2 15.749V13.749C2 12.6444 2.81403 11.749 3.81818 11.749ZM4 13.749V15.749H20V13.749H4ZM4 5.749V7.749H20V5.749H4ZM14 19.749H2V21.749H14V19.749Z" fill="black"/>
</svg>
