<svg width="24" height="24" viewBox="0 0 24 24" fill="none" xmlns="http://www.w3.org/2000/svg">
<path fill-rule="evenodd" clip-rule="evenodd" d="M3.81818 21L20.1818 21C21.186 21 22 20.1046 22 19L22 17C22 15.8954 21.186 15 20.1818 15L3.81818 15C2.81403 15 2 15.8954 2 17L2 19C2 20.1046 2.81403 21 3.81818 21ZM20.1818 13L3.81818 13C2.81403 13 2 12.1046 2 11L2 9C2 7.89543 2.81403 7 3.81818 7L20.1818 7C21.186 7 22 7.89543 22 9L22 11C22 12.1046 21.186 13 20.1818 13ZM20 11L20 9L4 9L4 11L20 11ZM20 19L20 17L4 17L4 19L20 19ZM10 5L22 5L22 3L10 3L10 5Z" fill="white"/>
</svg>
