<svg width="36" height="36" viewBox="0 0 36 36" fill="none" xmlns="http://www.w3.org/2000/svg">
<g clip-path="url(#clip0)">
<path d="M28.4514 22.3007C27.7143 21.5333 26.8254 21.123 25.8832 21.123C24.9487 21.123 24.0521 21.5257 23.2847 22.2931L20.8837 24.6865C20.6861 24.5801 20.4886 24.4813 20.2986 24.3825C20.0251 24.2458 19.7668 24.1166 19.5464 23.9798C17.2974 22.5514 15.2535 20.6899 13.2932 18.2813C12.3435 17.0808 11.7053 16.0703 11.2418 15.0445C11.8648 14.4747 12.4423 13.882 13.0045 13.3122C13.2173 13.0994 13.43 12.8791 13.6428 12.6663C15.2383 11.0708 15.2383 9.00409 13.6428 7.4085L11.5685 5.33424C11.333 5.0987 11.0898 4.85556 10.8619 4.61242C10.406 4.14135 9.92731 3.65507 9.43344 3.19919C8.69643 2.46978 7.81506 2.08228 6.8881 2.08228C5.96113 2.08228 5.06457 2.46978 4.30476 3.19919C4.29716 3.20679 4.29716 3.20679 4.28956 3.21438L1.70623 5.82051C0.733679 6.79306 0.179021 7.97836 0.0574527 9.3536C-0.1249 11.5722 0.528532 13.6389 1.03 14.9914C2.26089 18.3117 4.09961 21.3889 6.84251 24.6865C10.1705 28.6602 14.1746 31.7982 18.7486 34.0093C20.4962 34.8374 22.8288 35.8176 25.4349 35.9847C25.5945 35.9923 25.7616 35.9999 25.9136 35.9999C27.6688 35.9999 29.1428 35.3693 30.2977 34.1156C30.3053 34.1004 30.3205 34.0928 30.3281 34.0776C30.7232 33.599 31.1791 33.1659 31.6577 32.7024C31.9844 32.3909 32.3188 32.0642 32.6455 31.7222C33.3977 30.9396 33.7928 30.0279 33.7928 29.0933C33.7928 28.1512 33.3901 27.247 32.6227 26.4872L28.4514 22.3007ZM31.1715 30.3014C31.1639 30.3014 31.1639 30.309 31.1715 30.3014C30.8751 30.6205 30.5712 30.9093 30.2445 31.2284C29.7506 31.6995 29.2491 32.1933 28.7781 32.748C28.0107 33.5686 27.1065 33.9561 25.9212 33.9561C25.8072 33.9561 25.6857 33.9561 25.5717 33.9485C23.3151 33.8041 21.218 32.9227 19.6452 32.1705C15.3447 30.0887 11.5685 27.133 8.4305 23.3872C5.83957 20.2644 4.10721 17.3771 2.95991 14.2771C2.25329 12.3852 1.99495 10.9112 2.10893 9.52076C2.18491 8.63179 2.52682 7.89478 3.15746 7.26414L5.74839 4.67321C6.12069 4.3237 6.51579 4.13375 6.90329 4.13375C7.38197 4.13375 7.76947 4.42247 8.01261 4.66561C8.02021 4.67321 8.0278 4.68081 8.0354 4.6884C8.49888 5.12149 8.93957 5.56978 9.40305 6.04845C9.63859 6.29159 9.88173 6.53473 10.1249 6.78546L12.1991 8.85973C13.0045 9.66512 13.0045 10.4097 12.1991 11.2151C11.9788 11.4355 11.766 11.6558 11.5457 11.8686C10.9075 12.522 10.2996 13.1298 9.63859 13.7225C9.62339 13.7377 9.6082 13.7453 9.6006 13.7605C8.94717 14.4139 9.06874 15.0521 9.2055 15.4852C9.2131 15.508 9.2207 15.5308 9.22829 15.5536C9.76776 16.8605 10.5276 18.0914 11.6825 19.5578L11.6901 19.5654C13.7871 22.1487 15.9982 24.1622 18.4371 25.7046C18.7486 25.9021 19.0678 26.0617 19.3717 26.2137C19.6452 26.3504 19.9035 26.4796 20.1239 26.6164C20.1543 26.6316 20.1847 26.6544 20.2151 26.6695C20.4734 26.7987 20.7165 26.8595 20.9673 26.8595C21.5979 26.8595 21.993 26.4644 22.1222 26.3352L24.7207 23.7367C24.979 23.4784 25.3893 23.1668 25.868 23.1668C26.3391 23.1668 26.7266 23.4632 26.9621 23.7215C26.9697 23.7291 26.9697 23.7291 26.9773 23.7367L31.1639 27.9232C31.9465 28.6982 31.9465 29.496 31.1715 30.3014Z" fill="white"/>
<path d="M19.4553 8.56338C21.446 8.89769 23.2543 9.83985 24.6979 11.2835C26.1415 12.7271 27.0761 14.5354 27.418 16.5261C27.5016 17.0276 27.9347 17.3771 28.4286 17.3771C28.4893 17.3771 28.5425 17.3695 28.6033 17.3619C29.1656 17.2707 29.5379 16.7389 29.4467 16.1766C29.0364 13.768 27.8967 11.5722 26.1567 9.83225C24.4168 8.0923 22.221 6.95259 19.8124 6.5423C19.2501 6.45112 18.7259 6.82342 18.6271 7.37808C18.5283 7.93274 18.893 8.4722 19.4553 8.56338Z" fill="white"/>
<path d="M35.9582 15.8804C35.282 11.9142 33.4129 8.30511 30.5408 5.43304C27.6688 2.56098 24.0597 0.691864 20.0935 0.0156379C19.5388 -0.0831367 19.0146 0.296766 18.9158 0.851423C18.8246 1.41368 19.1969 1.93794 19.7592 2.03672C23.2999 2.63696 26.5291 4.31613 29.0972 6.87667C31.6653 9.44481 33.3369 12.674 33.9372 16.2147C34.0207 16.7161 34.4538 17.0657 34.9477 17.0657C35.0085 17.0657 35.0617 17.0581 35.1225 17.0505C35.6771 16.9669 36.057 16.435 35.9582 15.8804Z" fill="white"/>
</g>
<defs>
<clipPath id="clip0">
<rect width="36" height="36" fill="white"/>
</clipPath>
</defs>
</svg>
