<svg width="104" height="91" viewBox="0 0 104 91" fill="none" xmlns="http://www.w3.org/2000/svg">
<g clip-path="url(#clip0_810_52)">
<path d="M7.25556 75.2539C3.67953 75.2539 0.00238037 78.1265 0.00238037 83.1545C0.00238037 87.751 3.23543 90.9977 7.25556 90.9977C10.574 90.9977 12.0529 88.765 12.0529 88.765V89.7382C12.0529 90.1982 12.4868 90.7115 13.0238 90.7115H15.4225V75.5974H12.0529V77.5153C12.0529 77.5153 10.5616 75.2539 7.25556 75.2539V75.2539ZM7.8558 78.3445C10.7996 78.3445 12.3438 80.9397 12.3438 83.1533C12.3438 85.619 10.5104 87.9606 7.86205 87.9606C5.64819 87.9606 3.43054 86.1632 3.43054 83.1208C3.43054 80.3745 5.33897 78.3445 7.8558 78.3445Z" fill="black"/>
<path d="M20.1057 90.7112C19.5881 90.7112 19.1349 90.3389 19.1349 89.7379V75.5971H22.5044V77.4675C23.268 76.317 24.7597 75.249 27.0494 75.249C30.7917 75.249 32.7845 78.2395 32.7845 81.0359V90.7112H30.4429C29.829 90.7112 29.4149 90.1959 29.4149 89.6807V81.7801C29.4149 80.2301 28.4675 78.3476 26.2765 78.3476C23.9122 78.3476 22.5045 80.5874 22.5045 82.6961V90.7111L20.1057 90.7112Z" fill="black"/>
<path d="M42.6074 75.2538C39.0314 75.2538 35.3543 78.1264 35.3543 83.1544C35.3543 87.7509 38.5874 90.9976 42.6074 90.9976C45.9258 90.9976 47.4048 88.7649 47.4048 88.7649V89.7381C47.4048 90.1981 47.8387 90.7114 48.3757 90.7114H50.7744V68.0403H47.4048V77.5152C47.4048 77.5152 45.9134 75.2538 42.6074 75.2538V75.2538ZM43.2077 78.3444C46.1515 78.3444 47.6957 80.9396 47.6957 83.1532C47.6957 85.6189 45.8623 87.9605 43.2139 87.9605C41.0001 87.9605 38.7824 86.1631 38.7824 83.1207C38.7824 80.3744 40.6908 78.3444 43.2077 78.3444Z" fill="black"/>
<path d="M55.4576 90.7113C54.9399 90.7113 54.4867 90.3391 54.4867 89.7381V75.5973H57.8563V78.1163C58.4363 76.7051 59.6878 75.4255 61.9112 75.4255C62.531 75.4255 63.1106 75.54 63.1106 75.54V79.0323C63.1106 79.0323 62.3869 78.746 61.5114 78.746C59.1472 78.746 57.8563 80.9858 57.8563 83.0946V90.7113H55.4576Z" fill="black"/>
<path d="M83.5563 90.7112C83.0386 90.7112 82.5854 90.339 82.5854 89.7379V75.5972H85.9549V90.7112L83.5563 90.7112Z" fill="black"/>
<path d="M95.8351 75.2538C92.2591 75.2538 88.582 78.1264 88.582 83.1544C88.582 87.7509 91.815 90.9976 95.8351 90.9976C99.1535 90.9976 100.632 88.7649 100.632 88.7649V89.7381C100.632 90.1981 101.066 90.7114 101.603 90.7114H104.002V68.0403H100.632V77.5152C100.632 77.5152 99.1411 75.2538 95.8351 75.2538V75.2538ZM96.4354 78.3444C99.3792 78.3444 100.923 80.9396 100.923 83.1532C100.923 85.6189 99.09 87.9605 96.4416 87.9605C94.2278 87.9605 92.0101 86.1631 92.0101 83.1207C92.0101 80.3744 93.9185 78.3444 96.4354 78.3444Z" fill="black"/>
<path d="M84.2465 72.3379C85.4769 72.3379 86.4744 71.338 86.4744 70.1045C86.4744 68.871 85.4769 67.8711 84.2465 67.8711C83.016 67.8711 82.0185 68.871 82.0185 70.1045C82.0185 71.338 83.016 72.3379 84.2465 72.3379Z" fill="black"/>
<path d="M71.9972 75.2488C68.2521 75.2488 64.1376 78.0511 64.1376 83.1275C64.1376 87.7534 67.6422 90.9982 71.989 90.9982C77.3461 90.9982 79.9619 86.6812 79.9619 83.1568C79.9619 78.832 76.5936 75.2488 71.9972 75.2488V75.2488ZM72.0095 78.4031C74.5993 78.4031 76.5311 80.4955 76.5311 83.137C76.5311 85.8243 74.4804 87.8979 72.0171 87.8979C69.7306 87.8979 67.5078 86.0326 67.5078 83.1822C67.5078 80.2842 69.6219 78.4031 72.0095 78.4031V78.4031Z" fill="black"/>
<path d="M77.3827 17.6015L86.004 2.63068C86.4905 1.79142 86.1964 0.725306 85.3704 0.23762C84.5445 -0.250058 83.4697 0.0334698 82.9945 0.872741L74.26 16.0363C67.5961 12.9855 60.0949 11.2842 52.028 11.2842C43.9611 11.2842 36.4599 12.9854 29.7959 16.0363L21.0615 0.872741C20.5749 0.0334698 19.5114 -0.250058 18.6742 0.23762C17.837 0.725306 17.5541 1.79142 18.0406 2.63068L26.6619 17.6015C11.7953 25.6766 1.72575 40.7608 0.0626221 58.4194H103.993C102.33 40.7607 92.2608 25.6765 77.3829 17.6015H77.3827ZM28.1667 43.789C25.7568 43.789 23.8108 41.8269 23.8108 39.4225C23.8108 37.0068 25.7681 35.056 28.1667 35.056C30.5766 35.056 32.5226 37.0181 32.5226 39.4225C32.5339 41.8269 30.5766 43.789 28.1667 43.789ZM75.8781 43.789C73.4682 43.789 71.5222 41.8269 71.5222 39.4225C71.5222 37.0068 73.4795 35.056 75.8781 35.056C78.288 35.056 80.234 37.0181 80.234 39.4225C80.2453 41.8269 78.288 43.789 75.8781 43.789Z" fill="#32DE84"/>
</g>
<defs>
<clipPath id="clip0_810_52">
<rect width="104" height="91" fill="white"/>
</clipPath>
</defs>
</svg>
