<svg width="85" height="89" viewBox="0 0 85 89" fill="none" xmlns="http://www.w3.org/2000/svg">
<path d="M42.5 84.1247C65.4889 84.1247 84.125 65.4885 84.125 42.4997C84.125 19.5108 65.4889 0.874512 42.5 0.874512C19.5111 0.874512 0.875 19.5108 0.875 42.4997C0.875 65.4885 19.5111 84.1247 42.5 84.1247Z" fill="url(#paint0_linear_810_65)"/>
<path opacity="0.2" d="M47.1566 19.4202L40.7566 31.0188L27.7262 62.4634L22.2069 78.7864L22.3063 78.8857C28.4836 82.318 35.4331 84.1211 42.5 84.125C51.5776 84.1159 60.4035 81.1396 67.6328 75.6496C74.8621 70.1595 80.0985 62.4567 82.5442 53.7147L47.1566 19.4202Z" fill="url(#paint1_linear_810_65)"/>
<path opacity="0.15" d="M84.0753 41.145C83.8253 52.0093 79.3366 62.345 71.568 69.9439C63.7994 77.5429 53.3671 81.8024 42.5 81.8125C31.6998 81.8053 21.3251 77.6006 13.5674 70.0864C5.80967 62.5723 1.27625 52.337 0.924683 41.5425C0.904446 41.8615 0.887884 42.1806 0.875 42.5C0.875 53.5396 5.26048 64.1271 13.0667 71.9333C20.8729 79.7395 31.4604 84.125 42.5 84.125C53.5396 84.125 64.1271 79.7395 71.9333 71.9333C79.7395 64.1271 84.125 53.5396 84.125 42.5C84.1158 42.0481 84.0992 41.5964 84.0753 41.145V41.145Z" fill="black"/>
<path d="M40.8768 26.9351L34.8687 30.4038L66.0876 84.4764L72.5603 88.75L72.0957 81.0077L40.8768 26.9351Z" fill="#DCDCDC"/>
<path d="M67.9375 37.8557C67.9375 47.1249 65.183 49.3238 61.831 53.2407C60.0985 55.2368 58.0647 56.9316 55.7296 58.212C52.5659 59.9823 47.756 60.9615 43.8767 60.9615C39.9974 60.9615 36.3441 59.9446 33.2181 58.212C30.9375 56.375 26.3125 63.3124 29.3765 64.2219C33.6701 66.6325 38.6416 67.9374 43.9144 67.9374C49.1872 67.9374 55.3153 66.6325 59.6089 64.2219C61.9063 62.9415 64.0154 61.3597 65.8609 59.5518C71.435 54.1283 74.9377 46.2929 74.9377 37.8941C72.5594 37.871 70.0465 37.8941 67.9375 37.871V37.8557Z" fill="#C3C3C3"/>
<path d="M44.121 26.9351L50.129 30.4038L18.9102 84.4764L12.4375 88.75L12.9021 81.0077L44.121 26.9351Z" fill="#C3C3C3"/>
<path d="M49.7007 26.3124H47.125V19.4115V19.3745H42.4812H37.875V19.4115V26.3124H35.2617C32.8928 26.3124 30.9375 28.2699 30.9375 30.6118V41.9328H30.9751C30.9375 42.3047 31.1631 42.7135 31.652 43.1966L40.3379 50.8579C40.9395 51.4527 41.7292 51.7499 42.4812 51.7499V51.713L42.5188 51.7499C43.3084 51.7499 44.0981 51.4527 44.6621 50.8579L53.348 43.1966C53.8369 42.7135 54.0249 42.2674 54.0249 41.9328H54.0625V30.6491C54.0249 28.2702 52.1072 26.3124 49.7007 26.3124H49.7007Z" fill="url(#paint2_linear_810_65)"/>
<path d="M42.5151 40.1873H42.4849C39.954 40.1873 37.875 38.1288 37.875 35.5931C37.875 33.0572 39.954 30.9986 42.4849 30.9986V30.9385L42.5151 30.9986C45.046 31.0287 47.125 33.0572 47.125 35.5931C47.125 38.1288 45.046 40.1575 42.5151 40.1873Z" fill="url(#paint3_radial_810_65)"/>
<defs>
<linearGradient id="paint0_linear_810_65" x1="44.8125" y1="84.1247" x2="44.8125" y2="0.874512" gradientUnits="userSpaceOnUse">
<stop stop-color="#3B962D"/>
<stop offset="1" stop-color="#93D169"/>
</linearGradient>
<linearGradient id="paint1_linear_810_65" x1="33.25" y1="26.3125" x2="74.875" y2="67.9375" gradientUnits="userSpaceOnUse">
<stop/>
<stop offset="1" stop-opacity="0"/>
</linearGradient>
<linearGradient id="paint2_linear_810_65" x1="42.5" y1="51.7495" x2="42.5" y2="19.3745" gradientUnits="userSpaceOnUse">
<stop stop-color="#272B2D"/>
<stop offset="1" stop-color="#3E4447"/>
</linearGradient>
<radialGradient id="paint3_radial_810_65" cx="0" cy="0" r="1" gradientUnits="userSpaceOnUse" gradientTransform="translate(42.5 35.5619) scale(4.625 4.62443)">
<stop stop-color="#ACACAC"/>
<stop offset="1" stop-color="#CBCBCB"/>
</radialGradient>
</defs>
</svg>
