<svg width="104" height="104" viewBox="0 0 104 104" fill="none" xmlns="http://www.w3.org/2000/svg">
<mask id="mask0" mask-type="alpha" maskUnits="userSpaceOnUse" x="0" y="0" width="104" height="104">
<path d="M52 0C80.7418 0 104 23.2582 104 52C104 80.7418 80.7418 104 52 104C23.2582 104 0 80.7418 0 52C0 23.2582 23.2582 0 52 0Z" fill="white"/>
</mask>
<g mask="url(#mask0)">
<g filter="url(#filter0_d)">
<path d="M52 1.21875C80.0682 1.21875 102.781 23.9318 102.781 52C102.781 80.0682 80.0682 102.781 52 102.781C23.9318 102.781 1.21875 80.0682 1.21875 52C1.21875 23.9318 23.9318 1.21875 52 1.21875Z" fill="black"/>
</g>
<path d="M52 1.21875C80.0682 1.21875 102.781 23.9318 102.781 52C102.781 80.0682 80.0682 102.781 52 102.781C23.9318 102.781 1.21875 80.0682 1.21875 52C1.21875 23.9318 23.9318 1.21875 52 1.21875Z" fill="white"/>
<path d="M52 3.00049C79.0833 3.00049 100.999 24.9166 100.999 51.9999C100.999 79.0833 79.0833 100.999 52 100.999C24.9167 100.999 3.00055 79.0833 3.00055 51.9999C3.00055 24.9166 24.9167 3.00049 52 3.00049Z" fill="#5C5C5E"/>
<path d="M78.0143 73.5599C76.2325 79.0835 73.5598 83.1816 69.818 86.2107C66.0762 89.2397 61.0872 90.8433 54.8509 91.3779L53.6036 83.1816C57.7018 82.6471 60.7308 81.7562 62.6908 80.3307C63.4035 79.7962 64.829 78.1926 64.829 78.1926L50.04 30.7967H62.3344L70.8871 66.2545L79.9743 30.7967H91.9123L78.0143 73.5599ZM35.0729 29.1931C37.9238 29.1931 40.5965 29.5495 42.7347 30.4404C45.051 31.3313 47.1892 32.5785 49.3273 34.3603L44.3383 41.1312C42.9128 40.0621 41.4874 39.3494 40.2401 38.8148C38.9929 38.2803 37.3893 38.1021 35.9638 38.1021C29.9057 38.1021 26.8767 42.7348 26.8767 52.1783C26.8767 56.9892 27.5894 60.3746 29.193 62.3346C30.7966 64.4727 32.9348 65.3636 35.9638 65.3636C37.3893 65.3636 38.8147 65.1854 40.062 64.6509C41.3092 64.1164 42.7347 63.4036 44.5165 62.3346L49.5055 69.4618C45.4074 72.8472 40.7747 74.4508 35.4293 74.4508C31.153 74.4508 27.5894 73.5599 24.3821 71.7781C21.3531 69.9963 18.8586 67.3236 17.2549 63.9382C15.6513 60.5528 14.7604 56.6328 14.7604 52.0001C14.7604 47.5456 15.6513 43.4475 17.2549 40.0621C18.8586 36.4985 21.3531 33.8258 24.3821 31.8658C27.4112 30.2622 30.9748 29.1931 35.0729 29.1931Z" fill="white"/>
</g>
<defs>
<filter id="filter0_d" x="-2.78125" y="-2.78125" width="109.562" height="109.562" filterUnits="userSpaceOnUse" color-interpolation-filters="sRGB">
<feFlood flood-opacity="0" result="BackgroundImageFix"/>
<feColorMatrix in="SourceAlpha" type="matrix" values="0 0 0 0 0 0 0 0 0 0 0 0 0 0 0 0 0 0 127 0"/>
<feOffset/>
<feGaussianBlur stdDeviation="2"/>
<feColorMatrix type="matrix" values="0 0 0 0 0 0 0 0 0 0 0 0 0 0 0 0 0 0 0.3 0"/>
<feBlend mode="normal" in2="BackgroundImageFix" result="effect1_dropShadow"/>
<feBlend mode="normal" in="SourceGraphic" in2="effect1_dropShadow" result="shape"/>
</filter>
</defs>
</svg>
