<svg width="49" height="49" viewBox="0 0 49 49" fill="none" xmlns="http://www.w3.org/2000/svg">
<path d="M24.5 49C38.031 49 49 38.031 49 24.5C49 10.969 38.031 0 24.5 0C10.969 0 0 10.969 0 24.5C0 38.031 10.969 49 24.5 49Z" fill="url(#paint0_linear)"/>
<path d="M34.2624 38.3833H28.0868L25.2317 31.0284C24.9007 30.2009 24.1249 29.7871 22.9042 29.7871H20.794V38.3833H15.0528V16.2876H25.3248C27.9937 16.2876 30.0005 16.8669 31.3453 18.0255C32.6901 19.1633 33.3625 20.7978 33.3625 22.9287C33.3625 24.4183 32.959 25.7114 32.1522 26.8079C31.366 27.8837 30.2488 28.6492 28.8006 29.1044C29.4212 29.2285 29.9798 29.5182 30.4764 29.9733C30.9729 30.4284 31.366 31.0388 31.6556 31.8043L34.2624 38.3833ZM24.3938 25.4424C25.6352 25.4424 26.5351 25.2562 27.0937 24.8838C27.6523 24.4908 27.9316 23.8908 27.9316 23.0839C27.9316 22.2356 27.6523 21.6253 27.0937 21.2529C26.5558 20.8805 25.6558 20.6943 24.3938 20.6943H20.7319V25.4424H24.3938Z" fill="white"/>
<path d="M26.95 10.2083C26.95 11.787 25.6703 13.0667 24.0917 13.0667C22.5131 13.0667 21.2333 11.787 21.2333 10.2083C21.2333 8.62972 22.5131 7.35001 24.0917 7.35001C25.6703 7.35001 26.95 8.62972 26.95 10.2083Z" fill="white"/>
<defs>
<linearGradient id="paint0_linear" x1="42.0583" y1="39.6083" x2="6.53332" y2="7.75833" gradientUnits="userSpaceOnUse">
<stop stop-color="#3D3FE0"/>
<stop offset="1" stop-color="#9948E0"/>
</linearGradient>
</defs>
</svg>
